<?xml version="1.0" encoding="utf-8"?>
<!DOCTYPE svg PUBLIC "-//W3C//DTD SVG 1.1//EN" "http://www.w3.org/Graphics/SVG/1.1/DTD/svg11.dtd">
<svg version="1.1" id="Layer_1" xmlns="http://www.w3.org/2000/svg" xmlns:xlink="http://www.w3.org/1999/xlink" x="0px" y="0px"
	 width="70.87px" height="70.87px" viewBox="0 0 70.87 70.87" enable-background="new 0 0 70.87 70.87" xml:space="preserve">
<g>
	<g>
		<path fill="#FFFFFF" stroke="#FFFFFF" stroke-miterlimit="10" d="M42.359,40.487c-2.675,1.41-5.398,1.945-8.656,1.945
			c-7.975,0-14.734-5.836-14.734-15.222c0-10.018,6.954-18.723,17.75-18.723c8.462,0,14.103,5.981,14.103,14.104
			c0,7.294-4.084,11.573-8.607,11.573c-1.945,0-3.744-1.265-3.647-4.279H38.42c-1.702,2.869-3.939,4.279-6.857,4.279
			c-2.82,0-5.252-2.285-5.252-6.127c0-6.03,4.766-11.525,11.525-11.525c2.042,0,3.939,0.438,5.203,1.021l-1.653,8.802
			c-0.729,3.695-0.146,5.397,1.459,5.446c2.48,0.098,5.252-3.258,5.252-8.851c0-7.1-4.23-12.206-11.769-12.206
			c-7.926,0-14.589,6.322-14.589,16.193c0,8.122,5.301,13.179,12.498,13.179c2.772,0,5.349-0.583,7.343-1.701L42.359,40.487z
			 M39.685,19.479c-0.486-0.195-1.313-0.39-2.431-0.39c-4.279,0-7.732,4.036-7.732,8.754c0,2.14,1.07,3.695,3.21,3.695
			c2.82,0,5.397-3.599,5.933-6.613L39.685,19.479z"/>
	</g>
</g>
<g>
	<path fill="#FFFFFF" stroke="#FFFFFF" stroke-miterlimit="10" d="M17.587,39.416H19.7v10.825c0,4.296-2.112,5.616-4.896,5.616
		c-0.792,0-1.728-0.168-2.232-0.384l0.288-1.704c0.432,0.168,1.056,0.313,1.776,0.313c1.872,0,2.952-0.84,2.952-4.009V39.416z"/>
	<path fill="#FFFFFF" stroke="#FFFFFF" stroke-miterlimit="10" d="M33.62,49.689c0,4.297-3,6.168-5.785,6.168
		c-3.12,0-5.568-2.304-5.568-5.977c0-3.863,2.568-6.145,5.76-6.145C31.364,43.736,33.62,46.161,33.62,49.689z M24.427,49.809
		c0,2.545,1.44,4.465,3.504,4.465c2.016,0,3.528-1.896,3.528-4.512c0-1.969-0.984-4.441-3.48-4.441
		C25.507,45.32,24.427,47.625,24.427,49.809z"/>
	<path fill="#FFFFFF" stroke="#FFFFFF" stroke-miterlimit="10" d="M35.995,53.457c0.648,0.385,1.752,0.816,2.808,0.816
		c1.512,0,2.232-0.744,2.232-1.729c0-1.008-0.6-1.535-2.136-2.111c-2.112-0.769-3.096-1.896-3.096-3.289
		c0-1.871,1.536-3.408,4.008-3.408c1.176,0,2.208,0.313,2.833,0.721l-0.504,1.535c-0.456-0.287-1.296-0.695-2.376-0.695
		c-1.248,0-1.92,0.721-1.92,1.584c0,0.961,0.672,1.393,2.184,1.992c1.992,0.744,3.048,1.752,3.048,3.48
		c0,2.064-1.608,3.504-4.321,3.504c-1.272,0-2.448-0.336-3.264-0.816L35.995,53.457z"/>
	<path fill="#FFFFFF" stroke="#FFFFFF" stroke-miterlimit="10" d="M45.787,38.553h2.112v7.271h0.048
		c0.336-0.6,0.864-1.151,1.512-1.512c0.624-0.359,1.368-0.576,2.16-0.576c1.561,0,4.057,0.961,4.057,4.945v6.912h-2.112v-6.672
		c0-1.873-0.696-3.434-2.688-3.434c-1.368,0-2.424,0.961-2.833,2.089c-0.12,0.312-0.144,0.624-0.144,1.008v7.009h-2.112V38.553z"/>
</g>
</svg>
