<svg xmlns="http://www.w3.org/2000/svg" version="1.1" style="font-family:Lato, &#x27;Helvetica Neue&#x27;, Helvetica, Arial, sans-serif;font-size:18px;background-color:white;text-rendering:geometricPrecision;-webkit-font-smoothing:antialiased" width="850" height="600" viewBox="0 0 850 600"><defs><pattern id="noDataPattern" patternUnits="userSpaceOnUse" width="4" height="4" patternTransform="rotate(-45 2 2)"><path d="M -1,2 l 6,0" stroke="#ccc" stroke-width="0.7"></path></pattern></defs><g class="HeaderView"><g transform="translate(774, 15) scale(0.29)"><svg className="owidLog" width="210" height="120" viewBox="0 0 210 120" fill="none" xmlns="http://www.w3.org/2000/svg">
<g clip-path="url(#clip0)">
  <path d="M0 0h210v107.89H0V0z" fill="#002147" />
  <path
    d="M40.98 32.25c0 2.36-.38 4.53-1.12 6.51a14.26 14.26 0 0 1-8.1 8.4c-1.9.78-4.02 1.17-6.34 1.17-2.31 0-4.42-.39-6.33-1.17a14.31 14.31 0 0 1-8.08-8.4 18.29 18.29 0 0 1-1.12-6.51c0-2.36.38-4.53 1.12-6.5.75-1.97 1.8-3.67 3.17-5.1a14.32 14.32 0 0 1 4.9-3.34c1.92-.8 4.03-1.19 6.34-1.19 2.32 0 4.43.4 6.34 1.19 1.92.8 3.56 1.9 4.93 3.34a14.87 14.87 0 0 1 3.17 5.1 18.1 18.1 0 0 1 1.12 6.5zm-4.38 0c0-1.94-.26-3.68-.8-5.22a10.91 10.91 0 0 0-2.24-3.89 9.68 9.68 0 0 0-3.52-2.46 11.95 11.95 0 0 0-4.62-.86c-1.68 0-3.21.28-4.6.86a9.88 9.88 0 0 0-3.54 2.46 10.91 10.91 0 0 0-2.24 3.9c-.53 1.53-.8 3.27-.8 5.2 0 1.94.27 3.68.8 5.22a11.17 11.17 0 0 0 2.24 3.9 10.01 10.01 0 0 0 3.55 2.44c1.38.56 2.9.83 4.6.83s3.24-.27 4.61-.83a9.8 9.8 0 0 0 3.52-2.44 11.17 11.17 0 0 0 2.25-3.9c.53-1.54.8-3.28.8-5.21zm26.22-6.54V48H60.5c-.56 0-.9-.27-1.05-.81l-.31-2.4a12.45 12.45 0 0 1-3.26 2.6c-1.2.64-2.58.96-4.13.96-1.22 0-2.3-.2-3.24-.6a6.52 6.52 0 0 1-2.33-1.7 7.37 7.37 0 0 1-1.43-2.67c-.3-1.04-.46-2.2-.46-3.45V25.7h3.91v14.22c0 1.68.38 2.99 1.15 3.91.77.93 1.96 1.39 3.54 1.39 1.16 0 2.24-.27 3.23-.82a10.42 10.42 0 0 0 2.8-2.28V25.7h3.91zm8.61 4.47a9.94 9.94 0 0 1 2.6-3.56 5.64 5.64 0 0 1 3.76-1.3c.47 0 .92.05 1.34.15.44.1.83.27 1.17.49l-.3 2.92c-.09.37-.3.55-.66.55-.2 0-.5-.04-.9-.13a6.21 6.21 0 0 0-3.24.18 4.23 4.23 0 0 0-1.47.92c-.42.4-.81.9-1.17 1.5-.33.58-.64 1.26-.92 2.02V48H67.7V25.71h2.25c.42 0 .72.08.88.25.16.16.27.44.33.83l.26 3.39zm61.16-13.7L122.75 48h-3.82l-7.99-24.05a21.95 21.95 0 0 1-.42-1.58 38.36 38.36 0 0 1-.44 1.58L102.05 48h-3.83L88.4 16.47h3.54c.38 0 .7.1.95.29.26.2.43.43.5.73l6.52 21.9.28 1.28.29 1.46.3-1.46.38-1.27 7.41-21.91c.1-.25.26-.48.51-.69.27-.22.58-.33.95-.33h1.23c.38 0 .69.1.92.29a1.77 1.77 0 0 1 .53.73l7.4 21.9a28.4 28.4 0 0 1 .68 2.62 29.52 29.52 0 0 1 .52-2.61l6.54-21.91a1.31 1.31 0 0 1 .48-.7c.27-.21.58-.32.95-.32h3.32zm9.35 8.88c1.63 0 3.1.27 4.4.82a9.43 9.43 0 0 1 5.46 5.94c.5 1.4.74 2.98.74 4.73 0 1.76-.25 3.34-.74 4.75a9.43 9.43 0 0 1-5.46 5.92c-1.3.52-2.77.79-4.4.79-1.64 0-3.12-.27-4.44-.8a9.42 9.42 0 0 1-3.35-2.3c-.92-1-1.63-2.2-2.13-3.61-.49-1.41-.73-3-.73-4.75s.24-3.33.73-4.73c.5-1.43 1.2-2.64 2.13-3.63.93-1 2.04-1.77 3.35-2.31 1.32-.55 2.8-.82 4.44-.82zm0 19.89c2.2 0 3.84-.73 4.93-2.2 1.08-1.48 1.63-3.54 1.63-6.18 0-2.66-.55-4.72-1.63-6.2-1.09-1.49-2.73-2.23-4.93-2.23-1.12 0-2.09.2-2.93.57a5.71 5.71 0 0 0-2.06 1.65c-.55.72-.96 1.61-1.24 2.67-.26 1.04-.4 2.22-.4 3.54 0 2.64.55 4.7 1.64 6.18 1.1 1.47 2.76 2.2 4.99 2.2zm17.97-15.07a9.94 9.94 0 0 1 2.6-3.56 5.64 5.64 0 0 1 3.76-1.3c.47 0 .91.05 1.34.15.44.1.83.27 1.16.49l-.28 2.92c-.09.37-.31.55-.66.55-.2 0-.5-.04-.9-.13a6.2 6.2 0 0 0-3.24.18 4.23 4.23 0 0 0-1.47.92c-.43.4-.82.9-1.17 1.5a13.1 13.1 0 0 0-.92 2.02V48h-3.94V25.71h2.24c.43 0 .72.08.88.25.17.16.28.44.33.83l.27 3.39zm15.04-14.59V48h-3.92V15.6h3.92zm19.55 15.43a6.22 6.22 0 0 0-2.38-2.05 6.7 6.7 0 0 0-2.86-.6c-2.07 0-3.66.75-4.77 2.23-1.12 1.48-1.68 3.6-1.68 6.33 0 1.46.13 2.7.38 3.74a7.29 7.29 0 0 0 1.1 2.56 4.35 4.35 0 0 0 1.78 1.45c.7.3 1.5.46 2.4.46 1.29 0 2.41-.3 3.36-.88a9.6 9.6 0 0 0 2.67-2.49V31.02zm3.91-15.43V48h-2.33c-.56 0-.9-.27-1.06-.81l-.35-2.71a12.13 12.13 0 0 1-3.25 2.77 8.28 8.28 0 0 1-4.23 1.06 7.31 7.31 0 0 1-6.14-2.9c-.73-.96-1.3-2.15-1.69-3.57a18.35 18.35 0 0 1 .07-9.48 11.29 11.29 0 0 1 1.89-3.7 8.7 8.7 0 0 1 7.06-3.34 7.96 7.96 0 0 1 6.12 2.62V15.59h3.91zM46.61 70.71V93H42.7V70.71h3.91zm.84-7c0 .39-.08.75-.24 1.09-.15.32-.35.61-.62.88-.25.25-.55.44-.9.59a2.67 2.67 0 0 1-2.16 0 2.9 2.9 0 0 1-1.45-1.47 2.67 2.67 0 0 1 0-2.16c.15-.35.35-.65.6-.9.25-.27.53-.47.85-.62a2.67 2.67 0 0 1 2.16 0c.35.15.65.35.9.62.27.25.47.55.62.9.16.34.24.7.24 1.08zm7.97 10.24c.49-.54 1-1.04 1.54-1.48a9.85 9.85 0 0 1 3.66-1.84 8.96 8.96 0 0 1 5.43.35c.94.4 1.72.97 2.33 1.71.63.74 1.11 1.62 1.43 2.67.32 1.04.49 2.19.49 3.45V93h-3.94V78.81c0-1.69-.4-3-1.17-3.92-.76-.93-1.93-1.4-3.5-1.4-1.15 0-2.24.27-3.25.83-1 .56-1.92 1.31-2.77 2.27V93h-3.94V70.71h2.35c.56 0 .9.28 1.04.82l.3 2.42zm57.7 3.3c0 2.36-.37 4.5-1.11 6.44a14.3 14.3 0 0 1-3.17 4.98c-1.37 1.37-3 2.45-4.93 3.2-1.9.76-4.02 1.13-6.33 1.13H85.8V61.47h11.77c2.31 0 4.42.39 6.33 1.15a13.8 13.8 0 0 1 8.1 8.18 17.75 17.75 0 0 1 1.12 6.45zm-4.37 0c0-1.94-.26-3.67-.8-5.2a10.94 10.94 0 0 0-2.23-3.87 9.57 9.57 0 0 0-3.53-2.42 12.23 12.23 0 0 0-4.61-.83h-7.5v24.62h7.5c1.7 0 3.24-.28 4.61-.84a9.7 9.7 0 0 0 3.53-2.4 10.94 10.94 0 0 0 2.24-3.87c.53-1.53.8-3.26.8-5.2zm19.8 5.72c-1.8.06-3.34.2-4.62.44-1.26.22-2.3.51-3.1.88-.8.36-1.37.8-1.74 1.3-.35.5-.53 1.05-.53 1.67 0 .58.1 1.1.3 1.52a3 3 0 0 0 .76 1.05c.34.27.73.46 1.17.6a6.13 6.13 0 0 0 1.45.17 7.28 7.28 0 0 0 3.5-.81 11.95 11.95 0 0 0 2.82-2.2v-4.62zm-12.65-9.11a12.73 12.73 0 0 1 3.98-2.66c1.43-.59 3-.88 4.73-.88 1.25 0 2.36.2 3.33.61a6.81 6.81 0 0 1 3.94 4.38c.33 1.04.5 2.19.5 3.43V93h-1.74a1.8 1.8 0 0 1-.88-.18c-.2-.13-.36-.38-.48-.74l-.44-2.12-1.72 1.46a9.48 9.48 0 0 1-3.74 1.7c-.69.15-1.46.23-2.3.23-.87 0-1.69-.12-2.45-.35a5.34 5.34 0 0 1-3.34-2.93 6.64 6.64 0 0 1-.49-2.64c0-.88.25-1.72.73-2.53a6.33 6.33 0 0 1 2.35-2.17c1.09-.63 2.5-1.15 4.25-1.54 1.75-.41 3.89-.65 6.42-.7v-1.75c0-1.73-.37-3.03-1.12-3.91-.75-.9-1.84-1.34-3.28-1.34-.97 0-1.78.12-2.44.37-.64.23-1.2.5-1.7.81l-1.23.82c-.33.23-.67.35-1 .35-.27 0-.5-.07-.69-.2a2.1 2.1 0 0 1-.48-.53l-.7-1.25zm27.67 19.5c-1.76 0-3.12-.5-4.07-1.48-.94-.98-1.41-2.4-1.41-4.25V74h-2.68a.9.9 0 0 1-.6-.2c-.16-.14-.24-.36-.24-.66v-1.56l3.65-.46.9-6.89c.05-.22.14-.4.29-.52a.88.88 0 0 1 .62-.22H142v7.67h6.44V74H142v13.38c0 .94.22 1.63.68 2.09.45.45 1.04.68 1.76.68a3.21 3.21 0 0 0 1.85-.53l.55-.35c.16-.12.3-.18.41-.18.2 0 .4.13.55.38l1.15 1.87a7.45 7.45 0 0 1-2.44 1.5 8.53 8.53 0 0 1-2.95.52zm19.68-10.4c-1.8.07-3.34.21-4.62.45-1.26.22-2.3.51-3.1.88-.8.36-1.37.8-1.74 1.3-.35.5-.53 1.05-.53 1.67 0 .58.1 1.1.3 1.52a2.9 2.9 0 0 0 .76 1.05c.34.27.73.46 1.17.6a6.13 6.13 0 0 0 1.45.17 7.3 7.3 0 0 0 3.5-.81 12.04 12.04 0 0 0 2.82-2.2v-4.62zm-12.65-9.1a12.72 12.72 0 0 1 3.99-2.66c1.42-.59 3-.88 4.72-.88 1.25 0 2.36.2 3.33.61a6.81 6.81 0 0 1 3.94 4.38c.33 1.04.5 2.19.5 3.43V93h-1.74a1.8 1.8 0 0 1-.88-.18c-.2-.13-.36-.38-.48-.74l-.44-2.12-1.72 1.46a9.48 9.48 0 0 1-3.74 1.7c-.69.15-1.46.23-2.3.23-.87 0-1.69-.12-2.45-.35a5.33 5.33 0 0 1-3.34-2.93 6.62 6.62 0 0 1-.49-2.64c0-.88.25-1.72.73-2.53a6.33 6.33 0 0 1 2.35-2.17c1.09-.63 2.5-1.15 4.25-1.54 1.74-.41 3.89-.65 6.42-.7v-1.75c0-1.73-.37-3.03-1.12-3.91-.75-.9-1.84-1.34-3.28-1.34-.97 0-1.78.12-2.44.37-.64.23-1.2.5-1.7.81l-1.22.82c-.34.23-.68.35-1.02.35-.26 0-.49-.07-.68-.2a1.88 1.88 0 0 1-.48-.53l-.7-1.25zM40.98 32.25c0 2.36-.38 4.53-1.12 6.51a14.26 14.26 0 0 1-8.1 8.4c-1.9.78-4.02 1.17-6.34 1.17-2.31 0-4.42-.39-6.33-1.17a14.31 14.31 0 0 1-8.08-8.4 18.29 18.29 0 0 1-1.12-6.51c0-2.36.38-4.53 1.12-6.5.75-1.97 1.8-3.67 3.17-5.1a14.32 14.32 0 0 1 4.9-3.34c1.92-.8 4.03-1.19 6.34-1.19 2.32 0 4.43.4 6.34 1.19 1.92.8 3.56 1.9 4.93 3.34a14.87 14.87 0 0 1 3.17 5.1 18.1 18.1 0 0 1 1.12 6.5zm-4.38 0c0-1.94-.26-3.68-.8-5.22a10.91 10.91 0 0 0-2.24-3.89 9.68 9.68 0 0 0-3.52-2.46 11.95 11.95 0 0 0-4.62-.86c-1.68 0-3.21.28-4.6.86a9.88 9.88 0 0 0-3.54 2.46 10.91 10.91 0 0 0-2.24 3.9c-.53 1.53-.8 3.27-.8 5.2 0 1.94.27 3.68.8 5.22a11.17 11.17 0 0 0 2.24 3.9 10.01 10.01 0 0 0 3.55 2.44c1.38.56 2.9.83 4.6.83s3.24-.27 4.61-.83a9.8 9.8 0 0 0 3.52-2.44 11.17 11.17 0 0 0 2.25-3.9c.53-1.54.8-3.28.8-5.21zm26.22-6.54V48H60.5c-.56 0-.9-.27-1.05-.81l-.31-2.4a12.45 12.45 0 0 1-3.26 2.6c-1.2.64-2.58.96-4.13.96-1.22 0-2.3-.2-3.24-.6a6.52 6.52 0 0 1-2.33-1.7 7.37 7.37 0 0 1-1.43-2.67c-.3-1.04-.46-2.2-.46-3.45V25.7h3.91v14.22c0 1.68.38 2.99 1.15 3.91.77.93 1.96 1.39 3.54 1.39 1.16 0 2.24-.27 3.23-.82a10.42 10.42 0 0 0 2.8-2.28V25.7h3.91zm8.61 4.47a9.94 9.94 0 0 1 2.6-3.56 5.64 5.64 0 0 1 3.76-1.3c.47 0 .92.05 1.34.15.44.1.83.27 1.17.49l-.3 2.92c-.09.37-.3.55-.66.55-.2 0-.5-.04-.9-.13a6.21 6.21 0 0 0-3.24.18 4.23 4.23 0 0 0-1.47.92c-.42.4-.81.9-1.17 1.5-.33.58-.64 1.26-.92 2.02V48H67.7V25.71h2.25c.42 0 .72.08.88.25.16.16.27.44.33.83l.26 3.39zm61.16-13.7L122.75 48h-3.82l-7.99-24.05a21.95 21.95 0 0 1-.42-1.58 38.36 38.36 0 0 1-.44 1.58L102.05 48h-3.83L88.4 16.47h3.54c.38 0 .7.1.95.29.26.2.43.43.5.73l6.52 21.9.28 1.28.29 1.46.3-1.46.38-1.27 7.41-21.91c.1-.25.26-.48.51-.69.27-.22.58-.33.95-.33h1.23c.38 0 .69.1.92.29a1.77 1.77 0 0 1 .53.73l7.4 21.9a28.4 28.4 0 0 1 .68 2.62 29.52 29.52 0 0 1 .52-2.61l6.54-21.91a1.31 1.31 0 0 1 .48-.7c.27-.21.58-.32.95-.32h3.32zm9.35 8.88c1.63 0 3.1.27 4.4.82a9.43 9.43 0 0 1 5.46 5.94c.5 1.4.74 2.98.74 4.73 0 1.76-.25 3.34-.74 4.75a9.43 9.43 0 0 1-5.46 5.92c-1.3.52-2.77.79-4.4.79-1.64 0-3.12-.27-4.44-.8a9.42 9.42 0 0 1-3.35-2.3c-.92-1-1.63-2.2-2.13-3.61-.49-1.41-.73-3-.73-4.75s.24-3.33.73-4.73c.5-1.43 1.2-2.64 2.13-3.63.93-1 2.04-1.77 3.35-2.31 1.32-.55 2.8-.82 4.44-.82zm0 19.89c2.2 0 3.84-.73 4.93-2.2 1.08-1.48 1.63-3.54 1.63-6.18 0-2.66-.55-4.72-1.63-6.2-1.09-1.49-2.73-2.23-4.93-2.23-1.12 0-2.09.2-2.93.57a5.71 5.71 0 0 0-2.06 1.65c-.55.72-.96 1.61-1.24 2.67-.26 1.04-.4 2.22-.4 3.54 0 2.64.55 4.7 1.64 6.18 1.1 1.47 2.76 2.2 4.99 2.2zm17.97-15.07a9.94 9.94 0 0 1 2.6-3.56 5.64 5.64 0 0 1 3.76-1.3c.47 0 .91.05 1.34.15.44.1.83.27 1.16.49l-.28 2.92c-.09.37-.31.55-.66.55-.2 0-.5-.04-.9-.13a6.2 6.2 0 0 0-3.24.18 4.23 4.23 0 0 0-1.47.92c-.43.4-.82.9-1.17 1.5a13.1 13.1 0 0 0-.92 2.02V48h-3.94V25.71h2.24c.43 0 .72.08.88.25.17.16.28.44.33.83l.27 3.39zm15.04-14.59V48h-3.92V15.6h3.92zm19.55 15.43a6.22 6.22 0 0 0-2.38-2.05 6.7 6.7 0 0 0-2.86-.6c-2.07 0-3.66.75-4.77 2.23-1.12 1.48-1.68 3.6-1.68 6.33 0 1.46.13 2.7.38 3.74a7.29 7.29 0 0 0 1.1 2.56 4.35 4.35 0 0 0 1.78 1.45c.7.3 1.5.46 2.4.46 1.29 0 2.41-.3 3.36-.88a9.6 9.6 0 0 0 2.67-2.49V31.02zm3.91-15.43V48h-2.33c-.56 0-.9-.27-1.06-.81l-.35-2.71a12.13 12.13 0 0 1-3.25 2.77 8.28 8.28 0 0 1-4.23 1.06 7.31 7.31 0 0 1-6.14-2.9c-.73-.96-1.3-2.15-1.69-3.57a18.35 18.35 0 0 1 .07-9.48 11.29 11.29 0 0 1 1.89-3.7 8.7 8.7 0 0 1 7.06-3.34 7.96 7.96 0 0 1 6.12 2.62V15.59h3.91zM46.61 70.71V93H42.7V70.71h3.91zm.84-7c0 .39-.08.75-.24 1.09-.15.32-.35.61-.62.88-.25.25-.55.44-.9.59a2.67 2.67 0 0 1-2.16 0 2.9 2.9 0 0 1-1.45-1.47 2.67 2.67 0 0 1 0-2.16c.15-.35.35-.65.6-.9.25-.27.53-.47.85-.62a2.67 2.67 0 0 1 2.16 0c.35.15.65.35.9.62.27.25.47.55.62.9.16.34.24.7.24 1.08zm7.97 10.24c.49-.54 1-1.04 1.54-1.48a9.85 9.85 0 0 1 3.66-1.84 8.96 8.96 0 0 1 5.43.35c.94.4 1.72.97 2.33 1.71.63.74 1.11 1.62 1.43 2.67.32 1.04.49 2.19.49 3.45V93h-3.94V78.81c0-1.69-.4-3-1.17-3.92-.76-.93-1.93-1.4-3.5-1.4-1.15 0-2.24.27-3.25.83-1 .56-1.92 1.31-2.77 2.27V93h-3.94V70.71h2.35c.56 0 .9.28 1.04.82l.3 2.42zm57.7 3.3c0 2.36-.37 4.5-1.11 6.44a14.3 14.3 0 0 1-3.17 4.98c-1.37 1.37-3 2.45-4.93 3.2-1.9.76-4.02 1.13-6.33 1.13H85.8V61.47h11.77c2.31 0 4.42.39 6.33 1.15a13.8 13.8 0 0 1 8.1 8.18 17.75 17.75 0 0 1 1.12 6.45zm-4.37 0c0-1.94-.26-3.67-.8-5.2a10.94 10.94 0 0 0-2.23-3.87 9.57 9.57 0 0 0-3.53-2.42 12.23 12.23 0 0 0-4.61-.83h-7.5v24.62h7.5c1.7 0 3.24-.28 4.61-.84a9.7 9.7 0 0 0 3.53-2.4 10.94 10.94 0 0 0 2.24-3.87c.53-1.53.8-3.26.8-5.2zm19.8 5.72c-1.8.06-3.34.2-4.62.44-1.26.22-2.3.51-3.1.88-.8.36-1.37.8-1.74 1.3-.35.5-.53 1.05-.53 1.67 0 .58.1 1.1.3 1.52a3 3 0 0 0 .76 1.05c.34.27.73.46 1.17.6a6.13 6.13 0 0 0 1.45.17 7.28 7.28 0 0 0 3.5-.81 11.95 11.95 0 0 0 2.82-2.2v-4.62zm-12.65-9.11a12.73 12.73 0 0 1 3.98-2.66c1.43-.59 3-.88 4.73-.88 1.25 0 2.36.2 3.33.61a6.81 6.81 0 0 1 3.94 4.38c.33 1.04.5 2.19.5 3.43V93h-1.74a1.8 1.8 0 0 1-.88-.18c-.2-.13-.36-.38-.48-.74l-.44-2.12-1.72 1.46a9.48 9.48 0 0 1-3.74 1.7c-.69.15-1.46.23-2.3.23-.87 0-1.69-.12-2.45-.35a5.34 5.34 0 0 1-3.34-2.93 6.64 6.64 0 0 1-.49-2.64c0-.88.25-1.72.73-2.53a6.33 6.33 0 0 1 2.35-2.17c1.09-.63 2.5-1.15 4.25-1.54 1.75-.41 3.89-.65 6.42-.7v-1.75c0-1.73-.37-3.03-1.12-3.91-.75-.9-1.84-1.34-3.28-1.34-.97 0-1.78.12-2.44.37-.64.23-1.2.5-1.7.81l-1.23.82c-.33.23-.67.35-1 .35-.27 0-.5-.07-.69-.2a2.1 2.1 0 0 1-.48-.53l-.7-1.25zm27.67 19.5c-1.76 0-3.12-.5-4.07-1.48-.94-.98-1.41-2.4-1.41-4.25V74h-2.68a.9.9 0 0 1-.6-.2c-.16-.14-.24-.36-.24-.66v-1.56l3.65-.46.9-6.89c.05-.22.14-.4.29-.52a.88.88 0 0 1 .62-.22H142v7.67h6.44V74H142v13.38c0 .94.22 1.63.68 2.09.45.45 1.04.68 1.76.68a3.21 3.21 0 0 0 1.85-.53l.55-.35c.16-.12.3-.18.41-.18.2 0 .4.13.55.38l1.15 1.87a7.45 7.45 0 0 1-2.44 1.5 8.53 8.53 0 0 1-2.95.52zm19.68-10.4c-1.8.07-3.34.21-4.62.45-1.26.22-2.3.51-3.1.88-.8.36-1.37.8-1.74 1.3-.35.5-.53 1.05-.53 1.67 0 .58.1 1.1.3 1.52a2.9 2.9 0 0 0 .76 1.05c.34.27.73.46 1.17.6a6.13 6.13 0 0 0 1.45.17 7.3 7.3 0 0 0 3.5-.81 12.04 12.04 0 0 0 2.82-2.2v-4.62zm-12.65-9.1a12.72 12.72 0 0 1 3.99-2.66c1.42-.59 3-.88 4.72-.88 1.25 0 2.36.2 3.33.61a6.81 6.81 0 0 1 3.94 4.38c.33 1.04.5 2.19.5 3.43V93h-1.74a1.8 1.8 0 0 1-.88-.18c-.2-.13-.36-.38-.48-.74l-.44-2.12-1.72 1.46a9.48 9.48 0 0 1-3.74 1.7c-.69.15-1.46.23-2.3.23-.87 0-1.69-.12-2.45-.35a5.33 5.33 0 0 1-3.34-2.93 6.62 6.62 0 0 1-.49-2.64c0-.88.25-1.72.73-2.53a6.33 6.33 0 0 1 2.35-2.17c1.09-.63 2.5-1.15 4.25-1.54 1.74-.41 3.89-.65 6.42-.7v-1.75c0-1.73-.37-3.03-1.12-3.91-.75-.9-1.84-1.34-3.28-1.34-.97 0-1.78.12-2.44.37-.64.23-1.2.5-1.7.81l-1.22.82c-.34.23-.68.35-1.02.35-.26 0-.49-.07-.68-.2a1.88 1.88 0 0 1-.48-.53l-.7-1.25zM40.98 32.25c0 2.36-.38 4.53-1.12 6.51a14.26 14.26 0 0 1-8.1 8.4c-1.9.78-4.02 1.17-6.34 1.17-2.31 0-4.42-.39-6.33-1.17a14.31 14.31 0 0 1-8.08-8.4 18.29 18.29 0 0 1-1.12-6.51c0-2.36.38-4.53 1.12-6.5.75-1.97 1.8-3.67 3.17-5.1a14.32 14.32 0 0 1 4.9-3.34c1.92-.8 4.03-1.19 6.34-1.19 2.32 0 4.43.4 6.34 1.19 1.92.8 3.56 1.9 4.93 3.34a14.87 14.87 0 0 1 3.17 5.1 18.1 18.1 0 0 1 1.12 6.5zm-4.38 0c0-1.94-.26-3.68-.8-5.22a10.91 10.91 0 0 0-2.24-3.89 9.68 9.68 0 0 0-3.52-2.46 11.95 11.95 0 0 0-4.62-.86c-1.68 0-3.21.28-4.6.86a9.88 9.88 0 0 0-3.54 2.46 10.91 10.91 0 0 0-2.24 3.9c-.53 1.53-.8 3.27-.8 5.2 0 1.94.27 3.68.8 5.22a11.17 11.17 0 0 0 2.24 3.9 10.01 10.01 0 0 0 3.55 2.44c1.38.56 2.9.83 4.6.83s3.24-.27 4.61-.83a9.8 9.8 0 0 0 3.52-2.44 11.17 11.17 0 0 0 2.25-3.9c.53-1.54.8-3.28.8-5.21zm26.22-6.54V48H60.5c-.56 0-.9-.27-1.05-.81l-.31-2.4a12.45 12.45 0 0 1-3.26 2.6c-1.2.64-2.58.96-4.13.96-1.22 0-2.3-.2-3.24-.6a6.52 6.52 0 0 1-2.33-1.7 7.37 7.37 0 0 1-1.43-2.67c-.3-1.04-.46-2.2-.46-3.45V25.7h3.91v14.22c0 1.68.38 2.99 1.15 3.91.77.93 1.96 1.39 3.54 1.39 1.16 0 2.24-.27 3.23-.82a10.42 10.42 0 0 0 2.8-2.28V25.7h3.91zm8.61 4.47a9.94 9.94 0 0 1 2.6-3.56 5.64 5.64 0 0 1 3.76-1.3c.47 0 .92.05 1.34.15.44.1.83.27 1.17.49l-.3 2.92c-.09.37-.3.55-.66.55-.2 0-.5-.04-.9-.13a6.21 6.21 0 0 0-3.24.18 4.23 4.23 0 0 0-1.47.92c-.42.4-.81.9-1.17 1.5-.33.58-.64 1.26-.92 2.02V48H67.7V25.71h2.25c.42 0 .72.08.88.25.16.16.27.44.33.83l.26 3.39zm61.16-13.7L122.75 48h-3.82l-7.99-24.05a21.95 21.95 0 0 1-.42-1.58 38.36 38.36 0 0 1-.44 1.58L102.05 48h-3.83L88.4 16.47h3.54c.38 0 .7.1.95.29.26.2.43.43.5.73l6.52 21.9.28 1.28.29 1.46.3-1.46.38-1.27 7.41-21.91c.1-.25.26-.48.51-.69.27-.22.58-.33.95-.33h1.23c.38 0 .69.1.92.29a1.77 1.77 0 0 1 .53.73l7.4 21.9a28.4 28.4 0 0 1 .68 2.62 29.52 29.52 0 0 1 .52-2.61l6.54-21.91a1.31 1.31 0 0 1 .48-.7c.27-.21.58-.32.95-.32h3.32zm9.35 8.88c1.63 0 3.1.27 4.4.82a9.43 9.43 0 0 1 5.46 5.94c.5 1.4.74 2.98.74 4.73 0 1.76-.25 3.34-.74 4.75a9.43 9.43 0 0 1-5.46 5.92c-1.3.52-2.77.79-4.4.79-1.64 0-3.12-.27-4.44-.8a9.42 9.42 0 0 1-3.35-2.3c-.92-1-1.63-2.2-2.13-3.61-.49-1.41-.73-3-.73-4.75s.24-3.33.73-4.73c.5-1.43 1.2-2.64 2.13-3.63.93-1 2.04-1.77 3.35-2.31 1.32-.55 2.8-.82 4.44-.82zm0 19.89c2.2 0 3.84-.73 4.93-2.2 1.08-1.48 1.63-3.54 1.63-6.18 0-2.66-.55-4.72-1.63-6.2-1.09-1.49-2.73-2.23-4.93-2.23-1.12 0-2.09.2-2.93.57a5.71 5.71 0 0 0-2.06 1.65c-.55.72-.96 1.61-1.24 2.67-.26 1.04-.4 2.22-.4 3.54 0 2.64.55 4.7 1.64 6.18 1.1 1.47 2.76 2.2 4.99 2.2zm17.97-15.07a9.94 9.94 0 0 1 2.6-3.56 5.64 5.64 0 0 1 3.76-1.3c.47 0 .91.05 1.34.15.44.1.83.27 1.16.49l-.28 2.92c-.09.37-.31.55-.66.55-.2 0-.5-.04-.9-.13a6.2 6.2 0 0 0-3.24.18 4.23 4.23 0 0 0-1.47.92c-.43.4-.82.9-1.17 1.5a13.1 13.1 0 0 0-.92 2.02V48h-3.94V25.71h2.24c.43 0 .72.08.88.25.17.16.28.44.33.83l.27 3.39zm15.04-14.59V48h-3.92V15.6h3.92zm19.55 15.43a6.22 6.22 0 0 0-2.38-2.05 6.7 6.7 0 0 0-2.86-.6c-2.07 0-3.66.75-4.77 2.23-1.12 1.48-1.68 3.6-1.68 6.33 0 1.46.13 2.7.38 3.74a7.29 7.29 0 0 0 1.1 2.56 4.35 4.35 0 0 0 1.78 1.45c.7.3 1.5.46 2.4.46 1.29 0 2.41-.3 3.36-.88a9.6 9.6 0 0 0 2.67-2.49V31.02zm3.91-15.43V48h-2.33c-.56 0-.9-.27-1.06-.81l-.35-2.71a12.13 12.13 0 0 1-3.25 2.77 8.28 8.28 0 0 1-4.23 1.06 7.31 7.31 0 0 1-6.14-2.9c-.73-.96-1.3-2.15-1.69-3.57a18.35 18.35 0 0 1 .07-9.48 11.29 11.29 0 0 1 1.89-3.7 8.7 8.7 0 0 1 7.06-3.34 7.96 7.96 0 0 1 6.12 2.62V15.59h3.91zM46.61 70.71V93H42.7V70.71h3.91zm.84-7c0 .39-.08.75-.24 1.09-.15.32-.35.61-.62.88-.25.25-.55.44-.9.59a2.67 2.67 0 0 1-2.16 0 2.9 2.9 0 0 1-1.45-1.47 2.67 2.67 0 0 1 0-2.16c.15-.35.35-.65.6-.9.25-.27.53-.47.85-.62a2.67 2.67 0 0 1 2.16 0c.35.15.65.35.9.62.27.25.47.55.62.9.16.34.24.7.24 1.08zm7.97 10.24c.49-.54 1-1.04 1.54-1.48a9.85 9.85 0 0 1 3.66-1.84 8.96 8.96 0 0 1 5.43.35c.94.4 1.72.97 2.33 1.71.63.74 1.11 1.62 1.43 2.67.32 1.04.49 2.19.49 3.45V93h-3.94V78.81c0-1.69-.4-3-1.17-3.92-.76-.93-1.93-1.4-3.5-1.4-1.15 0-2.24.27-3.25.83-1 .56-1.92 1.31-2.77 2.27V93h-3.94V70.71h2.35c.56 0 .9.28 1.04.82l.3 2.42zm57.7 3.3c0 2.36-.37 4.5-1.11 6.44a14.3 14.3 0 0 1-3.17 4.98c-1.37 1.37-3 2.45-4.93 3.2-1.9.76-4.02 1.13-6.33 1.13H85.8V61.47h11.77c2.31 0 4.42.39 6.33 1.15a13.8 13.8 0 0 1 8.1 8.18 17.75 17.75 0 0 1 1.12 6.45zm-4.37 0c0-1.94-.26-3.67-.8-5.2a10.94 10.94 0 0 0-2.23-3.87 9.57 9.57 0 0 0-3.53-2.42 12.23 12.23 0 0 0-4.61-.83h-7.5v24.62h7.5c1.7 0 3.24-.28 4.61-.84a9.7 9.7 0 0 0 3.53-2.4 10.94 10.94 0 0 0 2.24-3.87c.53-1.53.8-3.26.8-5.2zm19.8 5.72c-1.8.06-3.34.2-4.62.44-1.26.22-2.3.51-3.1.88-.8.36-1.37.8-1.74 1.3-.35.5-.53 1.05-.53 1.67 0 .58.1 1.1.3 1.52a3 3 0 0 0 .76 1.05c.34.27.73.46 1.17.6a6.13 6.13 0 0 0 1.45.17 7.28 7.28 0 0 0 3.5-.81 11.95 11.95 0 0 0 2.82-2.2v-4.62zm-12.65-9.11a12.73 12.73 0 0 1 3.98-2.66c1.43-.59 3-.88 4.73-.88 1.25 0 2.36.2 3.33.61a6.81 6.81 0 0 1 3.94 4.38c.33 1.04.5 2.19.5 3.43V93h-1.74a1.8 1.8 0 0 1-.88-.18c-.2-.13-.36-.38-.48-.74l-.44-2.12-1.72 1.46a9.48 9.48 0 0 1-3.74 1.7c-.69.15-1.46.23-2.3.23-.87 0-1.69-.12-2.45-.35a5.34 5.34 0 0 1-3.34-2.93 6.64 6.64 0 0 1-.49-2.64c0-.88.25-1.72.73-2.53a6.33 6.33 0 0 1 2.35-2.17c1.09-.63 2.5-1.15 4.25-1.54 1.75-.41 3.89-.65 6.42-.7v-1.75c0-1.73-.37-3.03-1.12-3.91-.75-.9-1.84-1.34-3.28-1.34-.97 0-1.78.12-2.44.37-.64.23-1.2.5-1.7.81l-1.23.82c-.33.23-.67.35-1 .35-.27 0-.5-.07-.69-.2a2.1 2.1 0 0 1-.48-.53l-.7-1.25zm27.67 19.5c-1.76 0-3.12-.5-4.07-1.48-.94-.98-1.41-2.4-1.41-4.25V74h-2.68a.9.9 0 0 1-.6-.2c-.16-.14-.24-.36-.24-.66v-1.56l3.65-.46.9-6.89c.05-.22.14-.4.29-.52a.88.88 0 0 1 .62-.22H142v7.67h6.44V74H142v13.38c0 .94.22 1.63.68 2.09.45.45 1.04.68 1.76.68a3.21 3.21 0 0 0 1.85-.53l.55-.35c.16-.12.3-.18.41-.18.2 0 .4.13.55.38l1.15 1.87a7.45 7.45 0 0 1-2.44 1.5 8.53 8.53 0 0 1-2.95.52zm19.68-10.4c-1.8.07-3.34.21-4.62.45-1.26.22-2.3.51-3.1.88-.8.36-1.37.8-1.74 1.3-.35.5-.53 1.05-.53 1.67 0 .58.1 1.1.3 1.52a2.9 2.9 0 0 0 .76 1.05c.34.27.73.46 1.17.6a6.13 6.13 0 0 0 1.45.17 7.3 7.3 0 0 0 3.5-.81 12.04 12.04 0 0 0 2.82-2.2v-4.62zm-12.65-9.1a12.72 12.72 0 0 1 3.99-2.66c1.42-.59 3-.88 4.72-.88 1.25 0 2.36.2 3.33.61a6.81 6.81 0 0 1 3.94 4.38c.33 1.04.5 2.19.5 3.43V93h-1.74a1.8 1.8 0 0 1-.88-.18c-.2-.13-.36-.38-.48-.74l-.44-2.12-1.72 1.46a9.48 9.48 0 0 1-3.74 1.7c-.69.15-1.46.23-2.3.23-.87 0-1.69-.12-2.45-.35a5.33 5.33 0 0 1-3.34-2.93 6.62 6.62 0 0 1-.49-2.64c0-.88.25-1.72.73-2.53a6.33 6.33 0 0 1 2.35-2.17c1.09-.63 2.5-1.15 4.25-1.54 1.74-.41 3.89-.65 6.42-.7v-1.75c0-1.73-.37-3.03-1.12-3.91-.75-.9-1.84-1.34-3.28-1.34-.97 0-1.78.12-2.44.37-.64.23-1.2.5-1.7.81l-1.22.82c-.34.23-.68.35-1.02.35-.26 0-.49-.07-.68-.2a1.88 1.88 0 0 1-.48-.53l-.7-1.25z"
    fill="#fff"
  />
  <path fill="#D42B21" d="M0 106.79h210V120H0z" />
</g>
<defs>
  <clipPath id="clip0"><path fill="#fff" d="M0 0h210v120H0z" /></clipPath>
</defs>
</svg></g><a href="https://ourworldindata.org/explorers/coronavirus-data-explorer?zoomToSelection=true&amp;time=2020-03-01..latest&amp;facet=none&amp;pickerSort=asc&amp;pickerMetric=location&amp;Metric=Excess+mortality+%28count%29&amp;Interval=Cumulative&amp;Relative+to+Population=true&amp;Color+by+test+positivity=false&amp;country=USA~GBR~DEU~NZL~TWN~JPN~KOR~AUS~IRL" style="font-family:&quot;Playfair Display&quot;, Georgia, &quot;Times New Roman&quot;, serif" target="_blank" rel="noopener"><text font-size="21.60" x="15.0" y="33.8" fill="#555"><tspan x="15" y="33.791999999999994">Excess mortality: Cumulative number of deaths from all causes compared</tspan><tspan x="15" y="55.39199999999999">to projection based on previous years, per million people</tspan></text></a><text x="15.0" y="76.2" style="font-size:14.4px;line-height:1.2" fill="#666"><tspan x="15" y="76.2">The cumulative difference between the reported number of deaths since 1 January 2020 and the projected number of deaths for</tspan><tspan x="15" y="93.4">the same period based on previous years. The reported number might not count all deaths that occurred due to incomplete</tspan><tspan x="15" y="110.7">coverage and delays in reporting.</tspan></text></g><g class="LineChart"><defs><clipPath id="boundsClip-3"><rect x="50.824" y="120.03999999999999" width="840" height="436.1"></rect></clipPath></defs><rect x="15" y="130.04" width="820" height="416.1" fill="transparent"></rect><g class="DualAxisView"><g class="HorizontalAxis"><line x1="60.8" y1="524.94" x2="60.8" y2="529.94" stroke="#999"></line><line x1="703.6" y1="524.94" x2="703.6" y2="529.94" stroke="#999"></line><line x1="311.3" y1="524.94" x2="311.3" y2="529.94" stroke="#999"></line><line x1="450.4" y1="524.94" x2="450.4" y2="529.94" stroke="#999"></line><text x="60.824" y="546.14" fill="#666" text-anchor="start" font-size="16.2">Mar 1, 2020</text><text x="703.61" y="546.14" fill="#666" text-anchor="end" font-size="16.2">Sep 11, 2022</text><text x="311.3" y="546.14" fill="#666" text-anchor="middle" font-size="16.2">Feb 24, 2021</text><text x="450.4" y="546.14" fill="#666" text-anchor="middle" font-size="16.2">Sep 12, 2021</text></g><g class="VerticalAxis"><text x="55.82" y="519.9" dy=".32em" text-anchor="end" fill="#666" font-size="16.2">-500</text><text x="55.82" y="470.1" dy=".32em" text-anchor="end" fill="#666" font-size="16.2">0</text><text x="55.82" y="420.2" dy=".32em" text-anchor="end" fill="#666" font-size="16.2">500</text><text x="55.82" y="370.4" dy=".32em" text-anchor="end" fill="#666" font-size="16.2">1,000</text><text x="55.82" y="320.5" dy=".32em" text-anchor="end" fill="#666" font-size="16.2">1,500</text><text x="55.82" y="270.7" dy=".32em" text-anchor="end" fill="#666" font-size="16.2">2,000</text><text x="55.82" y="220.8" dy=".32em" text-anchor="end" fill="#666" font-size="16.2">2,500</text><text x="55.82" y="171" dy=".32em" text-anchor="end" fill="#666" font-size="16.2">3,000</text></g><g class="AxisGridLines horizontalLines"><line x1="60.82" y1="519.9" x2="703.61" y2="519.9" stroke="#ddd" stroke-dasharray="3,2"></line><line x1="60.82" y1="470.1" x2="703.61" y2="470.1" stroke="#999"></line><line x1="60.82" y1="420.2" x2="703.61" y2="420.2" stroke="#ddd" stroke-dasharray="3,2"></line><line x1="60.82" y1="370.4" x2="703.61" y2="370.4" stroke="#ddd" stroke-dasharray="3,2"></line><line x1="60.82" y1="320.5" x2="703.61" y2="320.5" stroke="#ddd" stroke-dasharray="3,2"></line><line x1="60.82" y1="270.7" x2="703.61" y2="270.7" stroke="#ddd" stroke-dasharray="3,2"></line><line x1="60.82" y1="220.8" x2="703.61" y2="220.8" stroke="#ddd" stroke-dasharray="3,2"></line><line x1="60.82" y1="171" x2="703.61" y2="171" stroke="#ddd" stroke-dasharray="3,2"></line></g></g><g clip-path="url(#boundsClip-3)"><g class="LineLabels" style="cursor:default"><g class="legendMark"><rect x="703.61" y="130.04" width="116.405" height="13.5" fill="#fff" opacity="0"></rect><text font-size="13.50" font-weight="400" x="707.6" y="141.8" fill="#286bbb"><tspan x="707.61" y="141.785">United States</tspan></text></g><g class="legendMark"><rect x="703.61" y="226.95" width="131.39" height="13.5" fill="#fff" opacity="0"></rect><text font-size="13.50" font-weight="400" x="707.6" y="238.7" fill="#18470f"><tspan x="707.61" y="238.695">United Kingdom</tspan></text></g><g class="legendMark"><rect x="703.61" y="318.35" width="90.62" height="13.5" fill="#fff" opacity="0"></rect><text font-size="13.50" font-weight="400" x="707.6" y="330.1" fill="#2c8465"><tspan x="707.61" y="330.095">Germany</tspan></text></g><g class="legendMark"><rect x="703.61" y="373.95" width="110.465" height="13.5" fill="#fff" opacity="0"></rect><text font-size="13.50" font-weight="400" x="707.6" y="385.7" fill="#6d3e91"><tspan x="707.61" y="385.695">South Korea</tspan></text></g><g class="legendMark"><rect x="703.61" y="389.45" width="76.445" height="13.5" fill="#fff" opacity="0"></rect><text font-size="13.50" font-weight="400" x="707.6" y="401.2" fill="#996d39"><tspan x="707.61" y="401.195">Ireland</tspan></text></g><g class="legendMark"><rect x="703.61" y="415.70000000000005" width="78.605" height="13.5" fill="#fff" opacity="0"></rect><text font-size="13.50" font-weight="400" x="707.6" y="427.4" fill="#cf0a66"><tspan x="707.61" y="427.44500000000005">Taiwan</tspan></text></g><g class="legendMark"><rect x="703.61" y="431.20000000000005" width="87.65" height="13.5" fill="#fff" opacity="0"></rect><text font-size="13.50" font-weight="400" x="707.6" y="442.9" fill="#c15065"><tspan x="707.61" y="442.94500000000005">Australia</tspan></text></g><g class="legendMark"><rect x="703.61" y="445.65" width="71.99000000000001" height="13.5" fill="#fff" opacity="0"></rect><text font-size="13.50" font-weight="400" x="707.6" y="457.4" fill="#be5915"><tspan x="707.61" y="457.395">Japan</tspan></text></g><g class="legendMark"><rect x="703.61" y="479.35" width="114.78500000000001" height="13.5" fill="#fff" opacity="0"></rect><text font-size="13.50" font-weight="400" x="707.6" y="491.1" fill="#883039"><tspan x="707.61" y="491.095">New Zealand</tspan></text></g></g><g class="Lines"><rect x="61" y="130" width="643" height="395" fill="rgba(255,255,255,0)" opacity="0"></rect><g><path stroke-linecap="round" stroke-linejoin="round" stroke="#ddd" d="M81.7 473.8L102.6 475.2L124.1 480.8L145 482.2L166.6 484.5L188.1 490.4L209 489.9L230.6 495.6L251.4 495.8L273 494L294.6 491.8L314 492L335.6 497.7L356.5 500.6L378 499.4L398.9 490.2L420.5 489.2L442 489.1L462.9 489.4L484.5 492.4L505.3 487.5L526.9 484.4L548.5 484.6L568 485.5L589.5 484.6L610.4 486.7L632 476.8L652.8 450.1L674.4 438.8L696 427.6" fill="none" stroke-width="1"></path></g><g><path stroke-linecap="round" stroke-linejoin="round" stroke="#ddd" d="M81.7 484.5L102.6 485.3L124.1 488.1L145 490.9L166.6 494.3L188.1 494.1L209 495L230.6 494.3L251.4 495.6L273 492.5L294.6 493.8L314 498.2L335.6 500.2L356.5 498.8L378 495.1L398.9 492.9L420.5 492.1L442 488.5L462.9 484.5L484.5 483.2L505.3 482.8L526.9 480.6L548.5 481L568 471.6L589.5 462.4L610.4 459.7L632 455.4L652.8 452.4" fill="none" stroke-width="1"></path></g><g><path stroke-linecap="round" stroke-linejoin="round" stroke="#ddd" d="M81.7 477.7L102.6 459.2L124.1 456.7L145 459.2L166.6 460.3L188.1 459.7L209 460.2L230.6 457.4L251.4 458L273 461.5L294.6 448L314 440L335.6 444.6L356.5 445.8L378 444.3L398.9 445L420.5 440.2L442 435.6L462.9 430.5L484.5 423.8L505.3 414.9L526.9 411L548.5 414.7L568 415.3L589.5 413.7L610.4 405.6L632 401L652.8 396.7L674.4 389.4" fill="none" stroke-width="1"></path></g><g><path stroke-linecap="round" stroke-linejoin="round" stroke="#ddd" d="M60.8 474.1L65.7 474L70.6 473.9L75.4 473.6L80.3 471.9L85.2 467.4L90 460.8L94.9 454.6L99.8 449L104.7 444.8L109.5 441L114.4 437.9L119.3 435.5L124.1 433.6L129 432L133.9 430.6L138.7 429.1L143.6 427.5L148.5 425.5L153.3 422.8L158.2 419.6L163.1 416.1L168 412.6L172.8 409.3L177.7 406L182.6 402.9L187.4 400.4L192.3 398.2L197.2 396.3L202 394.3L206.9 392.1L211.8 390.5L216.7 388.3L221.5 386.5L226.4 384.4L231.3 382L236.1 378.4L241 374.7L245.9 370.2L250.7 365.3L255.6 359.6L260.5 352.6L265.3 345.5L270.2 338.2L275.1 330.1L280 323.1L284.8 316.2L289.7 309.9L294.6 304.6L299.4 300.1L304.3 297.1L309.2 294.6L314 292.7L318.9 291.6L323.8 291.1L328.7 290.7L333.5 290.1L338.4 289.9L343.3 289L348.1 288.6L353 287.4L357.9 286.3L362.7 285.3L367.6 284.3L372.5 283L377.3 282.1L382.2 281.1L387.1 280.3L392 279.3L396.8 278.4L401.7 277.3L406.6 276.3L411.4 275.2L416.3 273.7L421.2 271.6L426 268.4L430.9 264.4L435.8 259.4L440.7 253.7L445.5 247.7L450.4 241.8L455.3 236L460.1 230.6L465 225.5L469.9 221.3L474.7 217.6L479.6 214.2L484.5 211L489.3 207.9L494.2 204.6L499.1 201.6L504 198.4L508.8 194.7L513.7 190.7L518.6 187.1L523.4 183.4L528.3 179.3L533.2 174.7L538 168.7L542.9 162.1L547.8 155.4L552.7 149.7L557.5 145.3L562.4 142.6L567.3 141.2L572.1 140.1L577 139.9L581.9 139.8L586.7 140.1L591.6 140.3L596.5 140.7L601.3 140.9L606.2 141L611.1 140.9L616 140.7L620.8 140.1L625.7 139.4L630.6 138.9L635.4 138.2L640.3 137.4L645.2 136.7L650 135.7L654.9 134.8L659.8 134.1L664.7 133.2L669.5 131.8L674.4 130.9L679.3 130" fill="none" stroke-width="1"></path></g><g><path stroke-linecap="round" stroke-linejoin="round" stroke="#ddd" d="M60.8 477.7L65.7 478.8L70.6 479.1L75.4 479L80.3 477.7L85.2 467.6L90 454.3L94.9 435.4L99.8 417L104.7 404.2L109.5 399L114.4 391.9L119.3 388.2L124.1 385.6L129 384.6L133.9 383.8L138.7 383.9L143.6 384.4L148.5 384.6L153.3 385.6L158.2 386.1L163.1 386.4L168 386.5L172.8 386.8L177.7 386.5L182.6 385.8L187.4 384.6L192.3 386.8L197.2 386L202 385.7L206.9 385.6L211.8 384.8L216.7 384.6L221.5 383.7L226.4 381.9L231.3 380.2L236.1 377.7L241 374.5L245.9 371L250.7 367.6L255.6 365L260.5 362.7L265.3 360.6L270.2 355L275.1 351.6L280 342.3L284.8 336.1L289.7 327.7L294.6 318.9L299.4 311.2L304.3 305.9L309.2 302.5L314 300.9L318.9 300.4L323.8 301.4L328.7 303L333.5 304L338.4 307.2L343.3 309.2L348.1 311.5L353 312.4L357.9 313.7L362.7 317L367.6 316.1L372.5 316.7L377.3 317.2L382.2 317.9L387.1 317.6L392 317.5L396.8 318.6L401.7 319.3L406.6 318.5L411.4 317.8L416.3 316.7L421.2 315L426 313.2L430.9 311.2L435.8 309.5L440.7 307.8L445.5 306.7L450.4 303.7L455.3 300.8L460.1 298.4L465 296.4L469.9 294.1L474.7 291.7L479.6 289.3L484.5 287.1L489.3 284.4L494.2 281.4L499.1 278.7L504 276.8L508.8 274.6L513.7 272.5L518.6 270L523.4 267.9L528.3 267.1L533.2 266.9L538 267.8L542.9 268.8L547.8 269.6L552.7 270.3L557.5 270.9L562.4 271.8L567.3 272.7L572.1 272.7L577 273.3L581.9 273.7L586.7 273.4L591.6 273.7L596.5 272.9L601.3 274L606.2 273.7L611.1 270.5L616 270.7L620.8 266.8L625.7 264.7L630.6 263.4L635.4 265.9L640.3 263.1L645.2 260.8L650 258.6L654.9 257L659.8 255.4L664.7 253.4L669.5 250.5L674.4 247.3L679.3 244.7L684.1 242.8L689 239.8L693.9 237.1L698.7 236.2L703.6 233.7" fill="none" stroke-width="1"></path></g><g><path stroke-linecap="round" stroke-linejoin="round" stroke="#ddd" d="M60.8 470.2L65.7 470.5L70.6 470.7L75.4 470.9L80.3 471.3L85.2 471.8L90 471.6L94.9 471.8L99.8 472L104.7 471.6L109.5 471.9L114.4 472.4L119.3 472.6L124.1 473.1L129 472.8L133.9 472.7L138.7 472.8L143.6 472.8L148.5 472.8L153.3 473.1L158.2 473L163.1 472.9L168 473.1L172.8 473.4L177.7 472.9L182.6 471.9L187.4 471.2L192.3 471.1L197.2 470.9L202 470.6L206.9 470.3L211.8 470.3L216.7 469.9L221.5 469.9L226.4 469.6L231.3 469.2L236.1 468.9L241 468.7L245.9 468.6L250.7 468.9L255.6 468.6L260.5 468.8L265.3 469.3L270.2 469.5L275.1 469.7L280 470.3L284.8 470.7L289.7 471.4L294.6 472.5L299.4 473.2L304.3 474.2L309.2 474.6L314 475.4L318.9 476.1L323.8 476.4L328.7 476.6L333.5 476.9L338.4 477.1L343.3 477.5L348.1 477.3L353 477.6L357.9 477.6L362.7 477.7L367.6 477.4L372.5 477.9L377.3 477.7L382.2 477.9L387.1 477.7L392 477.6L396.8 477.3L401.7 477L406.6 476.7L411.4 476.3L416.3 475.5L421.2 474.7L426 474.3L430.9 474.1L435.8 473.5L440.7 473L445.5 472.4L450.4 471.8L455.3 471.2L460.1 470.5L465 469.8L469.9 469.4L474.7 468.9L479.6 468.2L484.5 467L489.3 466.1L494.2 465.2L499.1 464L504 462.7L508.8 461L513.7 459.1L518.6 457.2L523.4 455.4L528.3 454L533.2 453.6L538 453.5L542.9 453.3L547.8 453L552.7 452.9L557.5 451.7L562.4 450.5L567.3 447.8L572.1 443.1L577 436.8L581.9 428.7L586.7 420.2L591.6 412.2L596.5 405.5L601.3 399.9L606.2 396.4L611.1 394L616 392.5L620.8 390.9L625.7 390.1L630.6 389.2L635.4 388.9L640.3 389L645.2 388.8L650 388.9L654.9 388.7L659.8 388.4L664.7 388.1L669.5 388.1L674.4 387.5" fill="none" stroke-width="1"></path></g><g><path stroke-linecap="round" stroke-linejoin="round" stroke="#ddd" d="M60.8 471L65.7 471.1L70.6 471.6L75.4 471.6L80.3 472L85.2 472.1L90 471.6L94.9 471.4L99.8 471.6L104.7 473.4L109.5 474.2L114.4 474.9L119.3 476.2L124.1 478L129 479.7L133.9 480.9L138.7 482.4L143.6 484.3L148.5 486.3L153.3 488.7L158.2 490L163.1 491.7L168 493.5L172.8 496.1L177.7 498.5L182.6 499.8L187.4 502.3L192.3 503.7L197.2 505.6L202 507.7L206.9 509.1L211.8 509.7L216.7 511.4L221.5 512.2L226.4 511.5L231.3 512.9L236.1 513.3L241 514.1L245.9 514.8L250.7 514.4L255.6 513.9L260.5 513.9L265.3 512.9L270.2 512.9L275.1 512L280 511.1L284.8 511.2L289.7 510.6L294.6 511.3L299.4 511L304.3 510.4L309.2 510.7L314 511L318.9 510.8L323.8 511.1L328.7 511.3L333.5 511.2L338.4 510.6L343.3 510.8L348.1 511L353 511.5L357.9 511L362.7 511.1L367.6 512L372.5 511.7L377.3 512.3L382.2 512.9L387.1 513.6L392 513.3L396.8 514.6L401.7 515.9L406.6 515.7L411.4 515.6L416.3 515.9L421.2 516.4L426 516.5L430.9 516.5L435.8 516.5L440.7 517.2L445.5 517.3L450.4 517.3L455.3 519.1L460.1 520.5L465 521.5L469.9 522.5L474.7 523.7L479.6 523.5L484.5 524L489.3 524.5L494.2 524.5L499.1 524L504 524.5L508.8 524.7L513.7 524L518.6 524.9L523.4 523.6L528.3 523.9L533.2 523.1L538 523.9L542.9 524.1L547.8 524.1L552.7 523.7L557.5 522.8L562.4 522.3L567.3 522.4L572.1 521.6L577 519.9L581.9 517.5L586.7 515.5L591.6 513.7L596.5 513L601.3 510.9L606.2 509.6L611.1 508.8L616 508.1L620.8 506.2L625.7 504.6L630.6 502.4L635.4 501.2L640.3 500.4L645.2 498L650 496.4L654.9 495.3L659.8 493.5L664.7 491.2L669.5 489.9L674.4 486.7L679.3 485.7L684.1 486.6L689 485.8L693.9 485.9L698.7 486.1" fill="none" stroke-width="1"></path></g><g><path stroke-linecap="round" stroke-linejoin="round" stroke="#ddd" d="M60.8 487L65.7 489.6L70.6 490.9L75.4 491.3L80.3 491L85.2 488.9L90 486.4L94.9 484.8L99.8 484L104.7 483.4L109.5 483.5L114.4 483.8L119.3 483.5L124.1 483.9L129 483.5L133.9 483.3L138.7 483.8L143.6 483.3L148.5 484.5L153.3 485.2L158.2 485.9L163.1 486.9L168 486.8L172.8 486.3L177.7 482.8L182.6 481.7L187.4 481.9L192.3 481.4L197.2 480.8L202 479.7L206.9 479L211.8 478.3L216.7 478.5L221.5 478.3L226.4 477.1L231.3 475.9L236.1 474.6L241 472.5L245.9 470.1L250.7 466.6L255.6 461.9L260.5 455.6L265.3 448.9L270.2 440.8L275.1 432.7L280 426.5L284.8 421.2L289.7 416.4L294.6 413.6L299.4 412.7L304.3 412.8L309.2 414L314 417.6L318.9 422.5L323.8 426.6L328.7 429.8L333.5 431.9L338.4 433.1L343.3 433.4L348.1 432.7L353 431.2L357.9 429.4L362.7 427.3L367.6 426.4L372.5 425.9L377.3 425.8L382.2 424.7L387.1 424.2L392 421.3L396.8 420.9L401.7 421L406.6 421.7L411.4 420.7L416.3 420.3L421.2 421.1L426 421.7L430.9 421.2L435.8 420.5L440.7 420.1L445.5 419.6L450.4 416.8L455.3 415.3L460.1 413.7L465 412.3L469.9 411L474.7 409.7L479.6 407.3L484.5 404.1L489.3 400.8L494.2 397.2L499.1 392.2L504 386.3L508.8 379.4L513.7 373.3L518.6 368.3L523.4 364.4L528.3 360.5L533.2 359.5L538 360L542.9 360.6L547.8 360.9L552.7 361.5L557.5 362.4L562.4 363L567.3 365.2L572.1 367.5L577 368.6L581.9 368.5L586.7 367.6L591.6 366.2L596.5 364.2L601.3 362.4L606.2 360.8L611.1 359.5L616 357.8L620.8 356.4L625.7 355.3L630.6 355.4L635.4 354.7L640.3 353.9L645.2 352L650 349.8L654.9 348.3L659.8 348L664.7 345.9L669.5 341.9L674.4 339.4L679.3 337L684.1 334.3L689 331.2L693.9 329L698.7 327.7L703.6 325.1" fill="none" stroke-width="1"></path></g><g><path stroke-linecap="round" stroke-linejoin="round" stroke="#ddd" d="M60.8 468.9L65.7 468.9L70.6 468.7L75.4 468.2L80.3 467.6L85.2 466.7L90 466.3L94.9 466.2L99.8 466.1L104.7 466.3L109.5 466.4L114.4 466.6L119.3 466.8L124.1 467.2L129 468.1L133.9 468.7L138.7 469.8L143.6 471L148.5 471.9L153.3 472.9L158.2 474.1L163.1 474.9L168 475.5L172.8 476L177.7 476.4L182.6 477.5L187.4 478.7L192.3 479.7L197.2 480.5L202 481.7L206.9 482.2L211.8 482.6L216.7 483.3L221.5 484L226.4 484.6L231.3 484.9L236.1 485L241 484.6L245.9 484.6L250.7 484.7L255.6 484.2L260.5 484.4L265.3 484.2L270.2 483.7L275.1 483.5L280 483.4L284.8 483.6L289.7 482.9L294.6 482.9L299.4 482.4L304.3 482.4L309.2 482.4L314 482.3L318.9 481.9L323.8 481.6L328.7 481.1L333.5 480.9L338.4 480.6L343.3 480.8L348.1 480.1L353 479.5L357.9 478.7L362.7 477.7L367.6 477.2L372.5 476.6L377.3 475.8L382.2 475.6L387.1 474.9L392 474.3L396.8 474L401.7 473.8L406.6 473.6L411.4 473.2L416.3 473L421.2 472.6L426 472.9L430.9 473.4L435.8 473.8L440.7 474.7L445.5 475.3L450.4 475.9L455.3 475.9L460.1 476.2L465 475.5L469.9 475.2L474.7 475L479.6 474.5L484.5 473.9L489.3 473.3L494.2 473.1L499.1 472.1L504 471.5L508.8 470.7L513.7 470.2L518.6 469.6L523.4 468.5L528.3 467.8L533.2 466.7L538 464L542.9 460.7L547.8 457.6L552.7 454.7L557.5 452.6L562.4 451L567.3 449.6L572.1 448.3L577 447.8L581.9 446.5L586.7 445.3L591.6 444L596.5 442.6L601.3 441.7L606.2 440.4L611.1 439.1L616 437.2L620.8 435.3L625.7 434.1L630.6 432.8" fill="none" stroke-width="1"></path></g><g><path fill="none" stroke-linecap="butt" stroke-linejoin="round" stroke="#fff" stroke-width="2.5" d="M81.7 473.8L102.6 475.2L124.1 480.8L145 482.2L166.6 484.5L188.1 490.4L209 489.9L230.6 495.6L251.4 495.8L273 494L294.6 491.8L314 492L335.6 497.7L356.5 500.6L378 499.4L398.9 490.2L420.5 489.2L442 489.1L462.9 489.4L484.5 492.4L505.3 487.5L526.9 484.4L548.5 484.6L568 485.5L589.5 484.6L610.4 486.7L632 476.8L652.8 450.1L674.4 438.8L696 427.6"></path><polyline points="81.70,473.80 102.60,475.20 124.10,480.80 145.00,482.20 166.60,484.50 188.10,490.40 209.00,489.90 230.60,495.60 251.40,495.80 273.00,494.00 294.60,491.80 314.00,492.00 335.60,497.70 356.50,500.60 378.00,499.40 398.90,490.20 420.50,489.20 442.00,489.10 462.90,489.40 484.50,492.40 505.30,487.50 526.90,484.40 548.50,484.60 568.00,485.50 589.50,484.60 610.40,486.70 632.00,476.80 652.80,450.10 674.40,438.80 696.00,427.60" stroke-linejoin="round" stroke-width="1.5" stroke="#CF0A66" fill="none" stroke-linecap="butt"></polyline></g><g><path fill="none" stroke-linecap="butt" stroke-linejoin="round" stroke="#fff" stroke-width="2.5" d="M81.7 484.5L102.6 485.3L124.1 488.1L145 490.9L166.6 494.3L188.1 494.1L209 495L230.6 494.3L251.4 495.6L273 492.5L294.6 493.8L314 498.2L335.6 500.2L356.5 498.8L378 495.1L398.9 492.9L420.5 492.1L442 488.5L462.9 484.5L484.5 483.2L505.3 482.8L526.9 480.6L548.5 481L568 471.6L589.5 462.4L610.4 459.7L632 455.4L652.8 452.4"></path><polyline points="81.70,484.50 102.60,485.30 124.10,488.10 145.00,490.90 166.60,494.30 188.10,494.10 209.00,495.00 230.60,494.30 251.40,495.60 273.00,492.50 294.60,493.80 314.00,498.20 335.60,500.20 356.50,498.80 378.00,495.10 398.90,492.90 420.50,492.10 442.00,488.50 462.90,484.50 484.50,483.20 505.30,482.80 526.90,480.60 548.50,481.00 568.00,471.60 589.50,462.40 610.40,459.70 632.00,455.40 652.80,452.40" stroke-linejoin="round" stroke-width="1.5" stroke="#BE5915" fill="none" stroke-linecap="butt"></polyline></g><g><path fill="none" stroke-linecap="butt" stroke-linejoin="round" stroke="#fff" stroke-width="2.5" d="M81.7 477.7L102.6 459.2L124.1 456.7L145 459.2L166.6 460.3L188.1 459.7L209 460.2L230.6 457.4L251.4 458L273 461.5L294.6 448L314 440L335.6 444.6L356.5 445.8L378 444.3L398.9 445L420.5 440.2L442 435.6L462.9 430.5L484.5 423.8L505.3 414.9L526.9 411L548.5 414.7L568 415.3L589.5 413.7L610.4 405.6L632 401L652.8 396.7L674.4 389.4"></path><polyline points="81.70,477.70 102.60,459.20 124.10,456.70 145.00,459.20 166.60,460.30 188.10,459.70 209.00,460.20 230.60,457.40 251.40,458.00 273.00,461.50 294.60,448.00 314.00,440.00 335.60,444.60 356.50,445.80 378.00,444.30 398.90,445.00 420.50,440.20 442.00,435.60 462.90,430.50 484.50,423.80 505.30,414.90 526.90,411.00 548.50,414.70 568.00,415.30 589.50,413.70 610.40,405.60 632.00,401.00 652.80,396.70 674.40,389.40" stroke-linejoin="round" stroke-width="1.5" stroke="#996D39" fill="none" stroke-linecap="butt"></polyline></g><g><path fill="none" stroke-linecap="butt" stroke-linejoin="round" stroke="#fff" stroke-width="2.5" d="M60.8 474.1L65.7 474L70.6 473.9L75.4 473.6L80.3 471.9L85.2 467.4L90 460.8L94.9 454.6L99.8 449L104.7 444.8L109.5 441L114.4 437.9L119.3 435.5L124.1 433.6L129 432L133.9 430.6L138.7 429.1L143.6 427.5L148.5 425.5L153.3 422.8L158.2 419.6L163.1 416.1L168 412.6L172.8 409.3L177.7 406L182.6 402.9L187.4 400.4L192.3 398.2L197.2 396.3L202 394.3L206.9 392.1L211.8 390.5L216.7 388.3L221.5 386.5L226.4 384.4L231.3 382L236.1 378.4L241 374.7L245.9 370.2L250.7 365.3L255.6 359.6L260.5 352.6L265.3 345.5L270.2 338.2L275.1 330.1L280 323.1L284.8 316.2L289.7 309.9L294.6 304.6L299.4 300.1L304.3 297.1L309.2 294.6L314 292.7L318.9 291.6L323.8 291.1L328.7 290.7L333.5 290.1L338.4 289.9L343.3 289L348.1 288.6L353 287.4L357.9 286.3L362.7 285.3L367.6 284.3L372.5 283L377.3 282.1L382.2 281.1L387.1 280.3L392 279.3L396.8 278.4L401.7 277.3L406.6 276.3L411.4 275.2L416.3 273.7L421.2 271.6L426 268.4L430.9 264.4L435.8 259.4L440.7 253.7L445.5 247.7L450.4 241.8L455.3 236L460.1 230.6L465 225.5L469.9 221.3L474.7 217.6L479.6 214.2L484.5 211L489.3 207.9L494.2 204.6L499.1 201.6L504 198.4L508.8 194.7L513.7 190.7L518.6 187.1L523.4 183.4L528.3 179.3L533.2 174.7L538 168.7L542.9 162.1L547.8 155.4L552.7 149.7L557.5 145.3L562.4 142.6L567.3 141.2L572.1 140.1L577 139.9L581.9 139.8L586.7 140.1L591.6 140.3L596.5 140.7L601.3 140.9L606.2 141L611.1 140.9L616 140.7L620.8 140.1L625.7 139.4L630.6 138.9L635.4 138.2L640.3 137.4L645.2 136.7L650 135.7L654.9 134.8L659.8 134.1L664.7 133.2L669.5 131.8L674.4 130.9L679.3 130"></path><polyline points="60.80,474.10 65.70,474.00 70.60,473.90 75.40,473.60 80.30,471.90 85.20,467.40 90.00,460.80 94.90,454.60 99.80,449.00 104.70,444.80 109.50,441.00 114.40,437.90 119.30,435.50 124.10,433.60 129.00,432.00 133.90,430.60 138.70,429.10 143.60,427.50 148.50,425.50 153.30,422.80 158.20,419.60 163.10,416.10 168.00,412.60 172.80,409.30 177.70,406.00 182.60,402.90 187.40,400.40 192.30,398.20 197.20,396.30 202.00,394.30 206.90,392.10 211.80,390.50 216.70,388.30 221.50,386.50 226.40,384.40 231.30,382.00 236.10,378.40 241.00,374.70 245.90,370.20 250.70,365.30 255.60,359.60 260.50,352.60 265.30,345.50 270.20,338.20 275.10,330.10 280.00,323.10 284.80,316.20 289.70,309.90 294.60,304.60 299.40,300.10 304.30,297.10 309.20,294.60 314.00,292.70 318.90,291.60 323.80,291.10 328.70,290.70 333.50,290.10 338.40,289.90 343.30,289.00 348.10,288.60 353.00,287.40 357.90,286.30 362.70,285.30 367.60,284.30 372.50,283.00 377.30,282.10 382.20,281.10 387.10,280.30 392.00,279.30 396.80,278.40 401.70,277.30 406.60,276.30 411.40,275.20 416.30,273.70 421.20,271.60 426.00,268.40 430.90,264.40 435.80,259.40 440.70,253.70 445.50,247.70 450.40,241.80 455.30,236.00 460.10,230.60 465.00,225.50 469.90,221.30 474.70,217.60 479.60,214.20 484.50,211.00 489.30,207.90 494.20,204.60 499.10,201.60 504.00,198.40 508.80,194.70 513.70,190.70 518.60,187.10 523.40,183.40 528.30,179.30 533.20,174.70 538.00,168.70 542.90,162.10 547.80,155.40 552.70,149.70 557.50,145.30 562.40,142.60 567.30,141.20 572.10,140.10 577.00,139.90 581.90,139.80 586.70,140.10 591.60,140.30 596.50,140.70 601.30,140.90 606.20,141.00 611.10,140.90 616.00,140.70 620.80,140.10 625.70,139.40 630.60,138.90 635.40,138.20 640.30,137.40 645.20,136.70 650.00,135.70 654.90,134.80 659.80,134.10 664.70,133.20 669.50,131.80 674.40,130.90 679.30,130.00" stroke-linejoin="round" stroke-width="1.5" stroke="#286BBB" fill="none" stroke-linecap="butt"></polyline></g><g><path fill="none" stroke-linecap="butt" stroke-linejoin="round" stroke="#fff" stroke-width="2.5" d="M60.8 477.7L65.7 478.8L70.6 479.1L75.4 479L80.3 477.7L85.2 467.6L90 454.3L94.9 435.4L99.8 417L104.7 404.2L109.5 399L114.4 391.9L119.3 388.2L124.1 385.6L129 384.6L133.9 383.8L138.7 383.9L143.6 384.4L148.5 384.6L153.3 385.6L158.2 386.1L163.1 386.4L168 386.5L172.8 386.8L177.7 386.5L182.6 385.8L187.4 384.6L192.3 386.8L197.2 386L202 385.7L206.9 385.6L211.8 384.8L216.7 384.6L221.5 383.7L226.4 381.9L231.3 380.2L236.1 377.7L241 374.5L245.9 371L250.7 367.6L255.6 365L260.5 362.7L265.3 360.6L270.2 355L275.1 351.6L280 342.3L284.8 336.1L289.7 327.7L294.6 318.9L299.4 311.2L304.3 305.9L309.2 302.5L314 300.9L318.9 300.4L323.8 301.4L328.7 303L333.5 304L338.4 307.2L343.3 309.2L348.1 311.5L353 312.4L357.9 313.7L362.7 317L367.6 316.1L372.5 316.7L377.3 317.2L382.2 317.9L387.1 317.6L392 317.5L396.8 318.6L401.7 319.3L406.6 318.5L411.4 317.8L416.3 316.7L421.2 315L426 313.2L430.9 311.2L435.8 309.5L440.7 307.8L445.5 306.7L450.4 303.7L455.3 300.8L460.1 298.4L465 296.4L469.9 294.1L474.7 291.7L479.6 289.3L484.5 287.1L489.3 284.4L494.2 281.4L499.1 278.7L504 276.8L508.8 274.6L513.7 272.5L518.6 270L523.4 267.9L528.3 267.1L533.2 266.9L538 267.8L542.9 268.8L547.8 269.6L552.7 270.3L557.5 270.9L562.4 271.8L567.3 272.7L572.1 272.7L577 273.3L581.9 273.7L586.7 273.4L591.6 273.7L596.5 272.9L601.3 274L606.2 273.7L611.1 270.5L616 270.7L620.8 266.8L625.7 264.7L630.6 263.4L635.4 265.9L640.3 263.1L645.2 260.8L650 258.6L654.9 257L659.8 255.4L664.7 253.4L669.5 250.5L674.4 247.3L679.3 244.7L684.1 242.8L689 239.8L693.9 237.1L698.7 236.2L703.6 233.7"></path><polyline points="60.80,477.70 65.70,478.80 70.60,479.10 75.40,479.00 80.30,477.70 85.20,467.60 90.00,454.30 94.90,435.40 99.80,417.00 104.70,404.20 109.50,399.00 114.40,391.90 119.30,388.20 124.10,385.60 129.00,384.60 133.90,383.80 138.70,383.90 143.60,384.40 148.50,384.60 153.30,385.60 158.20,386.10 163.10,386.40 168.00,386.50 172.80,386.80 177.70,386.50 182.60,385.80 187.40,384.60 192.30,386.80 197.20,386.00 202.00,385.70 206.90,385.60 211.80,384.80 216.70,384.60 221.50,383.70 226.40,381.90 231.30,380.20 236.10,377.70 241.00,374.50 245.90,371.00 250.70,367.60 255.60,365.00 260.50,362.70 265.30,360.60 270.20,355.00 275.10,351.60 280.00,342.30 284.80,336.10 289.70,327.70 294.60,318.90 299.40,311.20 304.30,305.90 309.20,302.50 314.00,300.90 318.90,300.40 323.80,301.40 328.70,303.00 333.50,304.00 338.40,307.20 343.30,309.20 348.10,311.50 353.00,312.40 357.90,313.70 362.70,317.00 367.60,316.10 372.50,316.70 377.30,317.20 382.20,317.90 387.10,317.60 392.00,317.50 396.80,318.60 401.70,319.30 406.60,318.50 411.40,317.80 416.30,316.70 421.20,315.00 426.00,313.20 430.90,311.20 435.80,309.50 440.70,307.80 445.50,306.70 450.40,303.70 455.30,300.80 460.10,298.40 465.00,296.40 469.90,294.10 474.70,291.70 479.60,289.30 484.50,287.10 489.30,284.40 494.20,281.40 499.10,278.70 504.00,276.80 508.80,274.60 513.70,272.50 518.60,270.00 523.40,267.90 528.30,267.10 533.20,266.90 538.00,267.80 542.90,268.80 547.80,269.60 552.70,270.30 557.50,270.90 562.40,271.80 567.30,272.70 572.10,272.70 577.00,273.30 581.90,273.70 586.70,273.40 591.60,273.70 596.50,272.90 601.30,274.00 606.20,273.70 611.10,270.50 616.00,270.70 620.80,266.80 625.70,264.70 630.60,263.40 635.40,265.90 640.30,263.10 645.20,260.80 650.00,258.60 654.90,257.00 659.80,255.40 664.70,253.40 669.50,250.50 674.40,247.30 679.30,244.70 684.10,242.80 689.00,239.80 693.90,237.10 698.70,236.20 703.60,233.70" stroke-linejoin="round" stroke-width="1.5" stroke="#18470F" fill="none" stroke-linecap="butt"></polyline></g><g><path fill="none" stroke-linecap="butt" stroke-linejoin="round" stroke="#fff" stroke-width="2.5" d="M60.8 470.2L65.7 470.5L70.6 470.7L75.4 470.9L80.3 471.3L85.2 471.8L90 471.6L94.9 471.8L99.8 472L104.7 471.6L109.5 471.9L114.4 472.4L119.3 472.6L124.1 473.1L129 472.8L133.9 472.7L138.7 472.8L143.6 472.8L148.5 472.8L153.3 473.1L158.2 473L163.1 472.9L168 473.1L172.8 473.4L177.7 472.9L182.6 471.9L187.4 471.2L192.3 471.1L197.2 470.9L202 470.6L206.9 470.3L211.8 470.3L216.7 469.9L221.5 469.9L226.4 469.6L231.3 469.2L236.1 468.9L241 468.7L245.9 468.6L250.7 468.9L255.6 468.6L260.5 468.8L265.3 469.3L270.2 469.5L275.1 469.7L280 470.3L284.8 470.7L289.7 471.4L294.6 472.5L299.4 473.2L304.3 474.2L309.2 474.6L314 475.4L318.9 476.1L323.8 476.4L328.7 476.6L333.5 476.9L338.4 477.1L343.3 477.5L348.1 477.3L353 477.6L357.9 477.6L362.7 477.7L367.6 477.4L372.5 477.9L377.3 477.7L382.2 477.9L387.1 477.7L392 477.6L396.8 477.3L401.7 477L406.6 476.7L411.4 476.3L416.3 475.5L421.2 474.7L426 474.3L430.9 474.1L435.8 473.5L440.7 473L445.5 472.4L450.4 471.8L455.3 471.2L460.1 470.5L465 469.8L469.9 469.4L474.7 468.9L479.6 468.2L484.5 467L489.3 466.1L494.2 465.2L499.1 464L504 462.7L508.8 461L513.7 459.1L518.6 457.2L523.4 455.4L528.3 454L533.2 453.6L538 453.5L542.9 453.3L547.8 453L552.7 452.9L557.5 451.7L562.4 450.5L567.3 447.8L572.1 443.1L577 436.8L581.9 428.7L586.7 420.2L591.6 412.2L596.5 405.5L601.3 399.9L606.2 396.4L611.1 394L616 392.5L620.8 390.9L625.7 390.1L630.6 389.2L635.4 388.9L640.3 389L645.2 388.8L650 388.9L654.9 388.7L659.8 388.4L664.7 388.1L669.5 388.1L674.4 387.5"></path><polyline points="60.80,470.20 65.70,470.50 70.60,470.70 75.40,470.90 80.30,471.30 85.20,471.80 90.00,471.60 94.90,471.80 99.80,472.00 104.70,471.60 109.50,471.90 114.40,472.40 119.30,472.60 124.10,473.10 129.00,472.80 133.90,472.70 138.70,472.80 143.60,472.80 148.50,472.80 153.30,473.10 158.20,473.00 163.10,472.90 168.00,473.10 172.80,473.40 177.70,472.90 182.60,471.90 187.40,471.20 192.30,471.10 197.20,470.90 202.00,470.60 206.90,470.30 211.80,470.30 216.70,469.90 221.50,469.90 226.40,469.60 231.30,469.20 236.10,468.90 241.00,468.70 245.90,468.60 250.70,468.90 255.60,468.60 260.50,468.80 265.30,469.30 270.20,469.50 275.10,469.70 280.00,470.30 284.80,470.70 289.70,471.40 294.60,472.50 299.40,473.20 304.30,474.20 309.20,474.60 314.00,475.40 318.90,476.10 323.80,476.40 328.70,476.60 333.50,476.90 338.40,477.10 343.30,477.50 348.10,477.30 353.00,477.60 357.90,477.60 362.70,477.70 367.60,477.40 372.50,477.90 377.30,477.70 382.20,477.90 387.10,477.70 392.00,477.60 396.80,477.30 401.70,477.00 406.60,476.70 411.40,476.30 416.30,475.50 421.20,474.70 426.00,474.30 430.90,474.10 435.80,473.50 440.70,473.00 445.50,472.40 450.40,471.80 455.30,471.20 460.10,470.50 465.00,469.80 469.90,469.40 474.70,468.90 479.60,468.20 484.50,467.00 489.30,466.10 494.20,465.20 499.10,464.00 504.00,462.70 508.80,461.00 513.70,459.10 518.60,457.20 523.40,455.40 528.30,454.00 533.20,453.60 538.00,453.50 542.90,453.30 547.80,453.00 552.70,452.90 557.50,451.70 562.40,450.50 567.30,447.80 572.10,443.10 577.00,436.80 581.90,428.70 586.70,420.20 591.60,412.20 596.50,405.50 601.30,399.90 606.20,396.40 611.10,394.00 616.00,392.50 620.80,390.90 625.70,390.10 630.60,389.20 635.40,388.90 640.30,389.00 645.20,388.80 650.00,388.90 654.90,388.70 659.80,388.40 664.70,388.10 669.50,388.10 674.40,387.50" stroke-linejoin="round" stroke-width="1.5" stroke="#6D3E91" fill="none" stroke-linecap="butt"></polyline></g><g><path fill="none" stroke-linecap="butt" stroke-linejoin="round" stroke="#fff" stroke-width="2.5" d="M60.8 471L65.7 471.1L70.6 471.6L75.4 471.6L80.3 472L85.2 472.1L90 471.6L94.9 471.4L99.8 471.6L104.7 473.4L109.5 474.2L114.4 474.9L119.3 476.2L124.1 478L129 479.7L133.9 480.9L138.7 482.4L143.6 484.3L148.5 486.3L153.3 488.7L158.2 490L163.1 491.7L168 493.5L172.8 496.1L177.7 498.5L182.6 499.8L187.4 502.3L192.3 503.7L197.2 505.6L202 507.7L206.9 509.1L211.8 509.7L216.7 511.4L221.5 512.2L226.4 511.5L231.3 512.9L236.1 513.3L241 514.1L245.9 514.8L250.7 514.4L255.6 513.9L260.5 513.9L265.3 512.9L270.2 512.9L275.1 512L280 511.1L284.8 511.2L289.7 510.6L294.6 511.3L299.4 511L304.3 510.4L309.2 510.7L314 511L318.9 510.8L323.8 511.1L328.7 511.3L333.5 511.2L338.4 510.6L343.3 510.8L348.1 511L353 511.5L357.9 511L362.7 511.1L367.6 512L372.5 511.7L377.3 512.3L382.2 512.9L387.1 513.6L392 513.3L396.8 514.6L401.7 515.9L406.6 515.7L411.4 515.6L416.3 515.9L421.2 516.4L426 516.5L430.9 516.5L435.8 516.5L440.7 517.2L445.5 517.3L450.4 517.3L455.3 519.1L460.1 520.5L465 521.5L469.9 522.5L474.7 523.7L479.6 523.5L484.5 524L489.3 524.5L494.2 524.5L499.1 524L504 524.5L508.8 524.7L513.7 524L518.6 524.9L523.4 523.6L528.3 523.9L533.2 523.1L538 523.9L542.9 524.1L547.8 524.1L552.7 523.7L557.5 522.8L562.4 522.3L567.3 522.4L572.1 521.6L577 519.9L581.9 517.5L586.7 515.5L591.6 513.7L596.5 513L601.3 510.9L606.2 509.6L611.1 508.8L616 508.1L620.8 506.2L625.7 504.6L630.6 502.4L635.4 501.2L640.3 500.4L645.2 498L650 496.4L654.9 495.3L659.8 493.5L664.7 491.2L669.5 489.9L674.4 486.7L679.3 485.7L684.1 486.6L689 485.8L693.9 485.9L698.7 486.1"></path><polyline points="60.80,471.00 65.70,471.10 70.60,471.60 75.40,471.60 80.30,472.00 85.20,472.10 90.00,471.60 94.90,471.40 99.80,471.60 104.70,473.40 109.50,474.20 114.40,474.90 119.30,476.20 124.10,478.00 129.00,479.70 133.90,480.90 138.70,482.40 143.60,484.30 148.50,486.30 153.30,488.70 158.20,490.00 163.10,491.70 168.00,493.50 172.80,496.10 177.70,498.50 182.60,499.80 187.40,502.30 192.30,503.70 197.20,505.60 202.00,507.70 206.90,509.10 211.80,509.70 216.70,511.40 221.50,512.20 226.40,511.50 231.30,512.90 236.10,513.30 241.00,514.10 245.90,514.80 250.70,514.40 255.60,513.90 260.50,513.90 265.30,512.90 270.20,512.90 275.10,512.00 280.00,511.10 284.80,511.20 289.70,510.60 294.60,511.30 299.40,511.00 304.30,510.40 309.20,510.70 314.00,511.00 318.90,510.80 323.80,511.10 328.70,511.30 333.50,511.20 338.40,510.60 343.30,510.80 348.10,511.00 353.00,511.50 357.90,511.00 362.70,511.10 367.60,512.00 372.50,511.70 377.30,512.30 382.20,512.90 387.10,513.60 392.00,513.30 396.80,514.60 401.70,515.90 406.60,515.70 411.40,515.60 416.30,515.90 421.20,516.40 426.00,516.50 430.90,516.50 435.80,516.50 440.70,517.20 445.50,517.30 450.40,517.30 455.30,519.10 460.10,520.50 465.00,521.50 469.90,522.50 474.70,523.70 479.60,523.50 484.50,524.00 489.30,524.50 494.20,524.50 499.10,524.00 504.00,524.50 508.80,524.70 513.70,524.00 518.60,524.90 523.40,523.60 528.30,523.90 533.20,523.10 538.00,523.90 542.90,524.10 547.80,524.10 552.70,523.70 557.50,522.80 562.40,522.30 567.30,522.40 572.10,521.60 577.00,519.90 581.90,517.50 586.70,515.50 591.60,513.70 596.50,513.00 601.30,510.90 606.20,509.60 611.10,508.80 616.00,508.10 620.80,506.20 625.70,504.60 630.60,502.40 635.40,501.20 640.30,500.40 645.20,498.00 650.00,496.40 654.90,495.30 659.80,493.50 664.70,491.20 669.50,489.90 674.40,486.70 679.30,485.70 684.10,486.60 689.00,485.80 693.90,485.90 698.70,486.10" stroke-linejoin="round" stroke-width="1.5" stroke="#883039" fill="none" stroke-linecap="butt"></polyline></g><g><path fill="none" stroke-linecap="butt" stroke-linejoin="round" stroke="#fff" stroke-width="2.5" d="M60.8 487L65.7 489.6L70.6 490.9L75.4 491.3L80.3 491L85.2 488.9L90 486.4L94.9 484.8L99.8 484L104.7 483.4L109.5 483.5L114.4 483.8L119.3 483.5L124.1 483.9L129 483.5L133.9 483.3L138.7 483.8L143.6 483.3L148.5 484.5L153.3 485.2L158.2 485.9L163.1 486.9L168 486.8L172.8 486.3L177.7 482.8L182.6 481.7L187.4 481.9L192.3 481.4L197.2 480.8L202 479.7L206.9 479L211.8 478.3L216.7 478.5L221.5 478.3L226.4 477.1L231.3 475.9L236.1 474.6L241 472.5L245.9 470.1L250.7 466.6L255.6 461.9L260.5 455.6L265.3 448.9L270.2 440.8L275.1 432.7L280 426.5L284.8 421.2L289.7 416.4L294.6 413.6L299.4 412.7L304.3 412.8L309.2 414L314 417.6L318.9 422.5L323.8 426.6L328.7 429.8L333.5 431.9L338.4 433.1L343.3 433.4L348.1 432.7L353 431.2L357.9 429.4L362.7 427.3L367.6 426.4L372.5 425.9L377.3 425.8L382.2 424.7L387.1 424.2L392 421.3L396.8 420.9L401.7 421L406.6 421.7L411.4 420.7L416.3 420.3L421.2 421.1L426 421.7L430.9 421.2L435.8 420.5L440.7 420.1L445.5 419.6L450.4 416.8L455.3 415.3L460.1 413.7L465 412.3L469.9 411L474.7 409.7L479.6 407.3L484.5 404.1L489.3 400.8L494.2 397.2L499.1 392.2L504 386.3L508.8 379.4L513.7 373.3L518.6 368.3L523.4 364.4L528.3 360.5L533.2 359.5L538 360L542.9 360.6L547.8 360.9L552.7 361.5L557.5 362.4L562.4 363L567.3 365.2L572.1 367.5L577 368.6L581.9 368.5L586.7 367.6L591.6 366.2L596.5 364.2L601.3 362.4L606.2 360.8L611.1 359.5L616 357.8L620.8 356.4L625.7 355.3L630.6 355.4L635.4 354.7L640.3 353.9L645.2 352L650 349.8L654.9 348.3L659.8 348L664.7 345.9L669.5 341.9L674.4 339.4L679.3 337L684.1 334.3L689 331.2L693.9 329L698.7 327.7L703.6 325.1"></path><polyline points="60.80,487.00 65.70,489.60 70.60,490.90 75.40,491.30 80.30,491.00 85.20,488.90 90.00,486.40 94.90,484.80 99.80,484.00 104.70,483.40 109.50,483.50 114.40,483.80 119.30,483.50 124.10,483.90 129.00,483.50 133.90,483.30 138.70,483.80 143.60,483.30 148.50,484.50 153.30,485.20 158.20,485.90 163.10,486.90 168.00,486.80 172.80,486.30 177.70,482.80 182.60,481.70 187.40,481.90 192.30,481.40 197.20,480.80 202.00,479.70 206.90,479.00 211.80,478.30 216.70,478.50 221.50,478.30 226.40,477.10 231.30,475.90 236.10,474.60 241.00,472.50 245.90,470.10 250.70,466.60 255.60,461.90 260.50,455.60 265.30,448.90 270.20,440.80 275.10,432.70 280.00,426.50 284.80,421.20 289.70,416.40 294.60,413.60 299.40,412.70 304.30,412.80 309.20,414.00 314.00,417.60 318.90,422.50 323.80,426.60 328.70,429.80 333.50,431.90 338.40,433.10 343.30,433.40 348.10,432.70 353.00,431.20 357.90,429.40 362.70,427.30 367.60,426.40 372.50,425.90 377.30,425.80 382.20,424.70 387.10,424.20 392.00,421.30 396.80,420.90 401.70,421.00 406.60,421.70 411.40,420.70 416.30,420.30 421.20,421.10 426.00,421.70 430.90,421.20 435.80,420.50 440.70,420.10 445.50,419.60 450.40,416.80 455.30,415.30 460.10,413.70 465.00,412.30 469.90,411.00 474.70,409.70 479.60,407.30 484.50,404.10 489.30,400.80 494.20,397.20 499.10,392.20 504.00,386.30 508.80,379.40 513.70,373.30 518.60,368.30 523.40,364.40 528.30,360.50 533.20,359.50 538.00,360.00 542.90,360.60 547.80,360.90 552.70,361.50 557.50,362.40 562.40,363.00 567.30,365.20 572.10,367.50 577.00,368.60 581.90,368.50 586.70,367.60 591.60,366.20 596.50,364.20 601.30,362.40 606.20,360.80 611.10,359.50 616.00,357.80 620.80,356.40 625.70,355.30 630.60,355.40 635.40,354.70 640.30,353.90 645.20,352.00 650.00,349.80 654.90,348.30 659.80,348.00 664.70,345.90 669.50,341.90 674.40,339.40 679.30,337.00 684.10,334.30 689.00,331.20 693.90,329.00 698.70,327.70 703.60,325.10" stroke-linejoin="round" stroke-width="1.5" stroke="#2C8465" fill="none" stroke-linecap="butt"></polyline></g><g><path fill="none" stroke-linecap="butt" stroke-linejoin="round" stroke="#fff" stroke-width="2.5" d="M60.8 468.9L65.7 468.9L70.6 468.7L75.4 468.2L80.3 467.6L85.2 466.7L90 466.3L94.9 466.2L99.8 466.1L104.7 466.3L109.5 466.4L114.4 466.6L119.3 466.8L124.1 467.2L129 468.1L133.9 468.7L138.7 469.8L143.6 471L148.5 471.9L153.3 472.9L158.2 474.1L163.1 474.9L168 475.5L172.8 476L177.7 476.4L182.6 477.5L187.4 478.7L192.3 479.7L197.2 480.5L202 481.7L206.9 482.2L211.8 482.6L216.7 483.3L221.5 484L226.4 484.6L231.3 484.9L236.1 485L241 484.6L245.9 484.6L250.7 484.7L255.6 484.2L260.5 484.4L265.3 484.2L270.2 483.7L275.1 483.5L280 483.4L284.8 483.6L289.7 482.9L294.6 482.9L299.4 482.4L304.3 482.4L309.2 482.4L314 482.3L318.9 481.9L323.8 481.6L328.7 481.1L333.5 480.9L338.4 480.6L343.3 480.8L348.1 480.1L353 479.5L357.9 478.7L362.7 477.7L367.6 477.2L372.5 476.6L377.3 475.8L382.2 475.6L387.1 474.9L392 474.3L396.8 474L401.7 473.8L406.6 473.6L411.4 473.2L416.3 473L421.2 472.6L426 472.9L430.9 473.4L435.8 473.8L440.7 474.7L445.5 475.3L450.4 475.9L455.3 475.9L460.1 476.2L465 475.5L469.9 475.2L474.7 475L479.6 474.5L484.5 473.9L489.3 473.3L494.2 473.1L499.1 472.1L504 471.5L508.8 470.7L513.7 470.2L518.6 469.6L523.4 468.5L528.3 467.8L533.2 466.7L538 464L542.9 460.7L547.8 457.6L552.7 454.7L557.5 452.6L562.4 451L567.3 449.6L572.1 448.3L577 447.8L581.9 446.5L586.7 445.3L591.6 444L596.5 442.6L601.3 441.7L606.2 440.4L611.1 439.1L616 437.2L620.8 435.3L625.7 434.1L630.6 432.8"></path><polyline points="60.80,468.90 65.70,468.90 70.60,468.70 75.40,468.20 80.30,467.60 85.20,466.70 90.00,466.30 94.90,466.20 99.80,466.10 104.70,466.30 109.50,466.40 114.40,466.60 119.30,466.80 124.10,467.20 129.00,468.10 133.90,468.70 138.70,469.80 143.60,471.00 148.50,471.90 153.30,472.90 158.20,474.10 163.10,474.90 168.00,475.50 172.80,476.00 177.70,476.40 182.60,477.50 187.40,478.70 192.30,479.70 197.20,480.50 202.00,481.70 206.90,482.20 211.80,482.60 216.70,483.30 221.50,484.00 226.40,484.60 231.30,484.90 236.10,485.00 241.00,484.60 245.90,484.60 250.70,484.70 255.60,484.20 260.50,484.40 265.30,484.20 270.20,483.70 275.10,483.50 280.00,483.40 284.80,483.60 289.70,482.90 294.60,482.90 299.40,482.40 304.30,482.40 309.20,482.40 314.00,482.30 318.90,481.90 323.80,481.60 328.70,481.10 333.50,480.90 338.40,480.60 343.30,480.80 348.10,480.10 353.00,479.50 357.90,478.70 362.70,477.70 367.60,477.20 372.50,476.60 377.30,475.80 382.20,475.60 387.10,474.90 392.00,474.30 396.80,474.00 401.70,473.80 406.60,473.60 411.40,473.20 416.30,473.00 421.20,472.60 426.00,472.90 430.90,473.40 435.80,473.80 440.70,474.70 445.50,475.30 450.40,475.90 455.30,475.90 460.10,476.20 465.00,475.50 469.90,475.20 474.70,475.00 479.60,474.50 484.50,473.90 489.30,473.30 494.20,473.10 499.10,472.10 504.00,471.50 508.80,470.70 513.70,470.20 518.60,469.60 523.40,468.50 528.30,467.80 533.20,466.70 538.00,464.00 542.90,460.70 547.80,457.60 552.70,454.70 557.50,452.60 562.40,451.00 567.30,449.60 572.10,448.30 577.00,447.80 581.90,446.50 586.70,445.30 591.60,444.00 596.50,442.60 601.30,441.70 606.20,440.40 611.10,439.10 616.00,437.20 620.80,435.30 625.70,434.10 630.60,432.80" stroke-linejoin="round" stroke-width="1.5" stroke="#C15065" fill="none" stroke-linecap="butt"></polyline></g></g></g></g><g class="SourcesFooter" style="fill:#777"><g style="fill:#777"><text font-size="12.60" x="15.0" y="582.7"><tspan x="15" y="582.732">Source: Human Mortality Database (2022), World Mortality Dataset (2022)</tspan></text></g><text font-size="12.60" x="796.4" y="582.7"><tspan x="796.444" y="582.732"><a style="fill: #777;" class="cclogo" href="http://creativecommons.org/licenses/by/4.0/deed.en_US" target="_blank">CC BY</a></tspan></text></g></svg>